<svg width="38" height="30" viewBox="0 0 38 30" fill="none" xmlns="http://www.w3.org/2000/svg">
<path d="M0 27.5C0 28.8807 1.11929 30 2.5 30H35C36.3807 30 37.5 28.8807 37.5 27.5C37.5 26.1193 36.3807 25 35 25H2.5C1.11929 25 0 26.1193 0 27.5ZM0 15C0 16.3807 1.11929 17.5 2.5 17.5H35C36.3807 17.5 37.5 16.3807 37.5 15C37.5 13.6193 36.3807 12.5 35 12.5H2.5C1.11929 12.5 0 13.6193 0 15ZM2.5 0C1.11929 0 0 1.11929 0 2.5C0 3.88071 1.11929 5 2.5 5H35C36.3807 5 37.5 3.88071 37.5 2.5C37.5 1.11929 36.3807 0 35 0H2.5Z" fill="#1992E3"/>
</svg>
