<svg width="19" height="17" viewBox="0 0 19 17" fill="none" xmlns="http://www.w3.org/2000/svg">
<path d="M13.575 0C12.7018 0.0135829 11.8476 0.257353 11.0987 0.706692C10.3498 1.15603 9.7327 1.79503 9.30977 2.55915C8.88684 1.79503 8.26977 1.15603 7.52087 0.706692C6.77198 0.257353 5.91777 0.0135829 5.04451 0C3.65244 0.0604819 2.34089 0.669455 1.39639 1.69388C0.451885 2.7183 -0.0487864 4.07489 0.00375428 5.46729C0.00375428 8.99349 3.7153 12.8446 6.82817 15.4557C7.52319 16.0398 8.40194 16.36 9.30977 16.36C10.2176 16.36 11.0964 16.0398 11.7914 15.4557C14.9042 12.8446 18.6158 8.99349 18.6158 5.46729C18.6683 4.07489 18.1677 2.7183 17.2232 1.69388C16.2787 0.669455 14.9671 0.0604819 13.575 0Z" fill="#1992E3"/>
</svg>
