<svg width="21" height="30" viewBox="0 0 21 30" fill="none" xmlns="http://www.w3.org/2000/svg">
<path d="M9.08575 30C8.67622 29.9985 8.2719 29.9081 7.90076 29.735C7.29452 29.465 6.80763 28.9831 6.53146 28.3797C6.25529 27.7762 6.20881 27.0928 6.40076 26.4575L8.35201 20H3.75451C3.16877 20.0007 2.59101 19.8642 2.06752 19.6014C1.54404 19.3386 1.0894 18.9568 0.740039 18.4867C0.390676 18.0165 0.156307 17.4711 0.0557137 16.894C-0.0448794 16.317 -0.00889907 15.7244 0.160772 15.1638L3.94076 2.66381C4.17117 1.89066 4.64612 1.21309 5.29432 0.732798C5.94253 0.252506 6.72902 -0.00460203 7.53576 6.23615e-05H12.152C12.6767 0.000501289 13.1935 0.12797 13.6582 0.371574C14.1229 0.615178 14.5217 0.967675 14.8206 1.39894C15.1194 1.8302 15.3094 2.32741 15.3743 2.84808C15.4392 3.36874 15.3771 3.89737 15.1932 4.3888L13.0895 10H16.2857C16.9671 9.99999 17.6355 10.1856 18.2193 10.5368C18.8031 10.888 19.2802 11.3917 19.5993 11.9937C19.9184 12.5956 20.0675 13.2732 20.0305 13.9535C19.9935 14.6338 19.7719 15.2912 19.3895 15.855L11.3895 28.73C11.1422 29.1173 10.8018 29.4365 10.3993 29.6583C9.9969 29.8802 9.54528 29.9977 9.08575 30Z" fill="#718096"/>
</svg>
