<svg width="22" height="22" viewBox="0 0 22 22" fill="none" xmlns="http://www.w3.org/2000/svg">
<path d="M0.768 6.448V4.752H21.952V6.448H0.768ZM0.768 9.84V8.144H21.952V9.84H0.768ZM11.744 0.879999C13.1733 0.879999 14.4107 1.14667 15.456 1.68C16.5227 2.192 17.3547 2.928 17.952 3.888C18.5493 4.848 18.848 5.98933 18.848 7.312C18.848 8.63467 18.5493 9.776 17.952 10.736C17.3547 11.696 16.5227 12.4427 15.456 12.976C14.4107 13.488 13.1733 13.744 11.744 13.744H6.848V22H4.288V0.879999H11.744ZM11.36 11.344C13.024 11.344 14.24 11.0027 15.008 10.32C15.776 9.616 16.16 8.61333 16.16 7.312C16.16 5.98933 15.776 4.98667 15.008 4.304C14.24 3.62133 13.024 3.28 11.36 3.28H6.848V11.344H11.36Z" fill="#2D3748"/>
</svg>
