<svg width="40" height="42" viewBox="0 0 40 42" fill="none" xmlns="http://www.w3.org/2000/svg">
<g clip-path="url(#clip0_1_1449)">
<path d="M27.571 18.8131C28.2639 18.533 29.0011 18.4445 29.7383 18.4445C31.2569 18.4445 32.5986 18.9016 32.746 19.5945C32.746 20.376 32.746 20.3317 32.5101 20.833C32.4659 20.9657 32.4217 21.1132 32.4217 21.2016C32.4217 21.4817 32.5986 21.6144 32.9819 21.6144C35.2967 22.1157 38.2013 24.46 39.2186 26.5389C39.7199 27.4088 40 28.5588 40 29.7088C40 30.8588 39.7199 32.0088 39.2186 32.923C37.5525 36.4172 33.498 38.8942 29.2812 38.8942C28.9126 38.8942 28.4998 38.8942 28.1312 38.85C25.2709 38.6141 23.192 37.523 22.1747 35.223C21.8061 34.4858 21.5702 33.896 21.5702 32.4217C21.5702 31.8761 21.5702 31.1832 21.6587 30.3575C21.8946 27.9248 22.3516 26.4504 22.3516 25.8017C22.3516 25.5658 22.2632 25.4331 22.0715 25.4331C21.7471 25.4331 21.01 25.8902 19.5356 26.76C18.5182 26.8927 17.9137 27.3645 17.9137 27.3645C17.9137 27.3645 19.2997 29.5761 19.2997 32.746C19.2997 33.8518 19.108 35.0461 18.6509 36.3288C17.0291 39.7346 13.3874 41.5628 8.77258 41.5628C8.21231 41.5628 7.66679 41.5186 7.06229 41.4744C3.68596 40.9731 1.38592 39.1743 0.368596 36.3288C0.132694 35.5474 0 34.6332 0 33.6159C0 31.2274 0.648728 28.4703 1.88721 26.303C2.66863 24.5042 5.26355 22.2632 7.06229 21.4817C8.16808 20.7888 9.74567 20.4644 11.0284 20.4644C12.1342 20.4644 12.9746 20.7446 12.9746 21.2016V21.3343C12.9746 22.0715 10.763 22.3516 10.1585 23.5017C9.83413 23.9587 9.59823 24.1946 9.59823 24.2831C9.59823 24.3273 9.64246 24.3715 9.77516 24.3715C9.90785 24.3715 10.188 24.3273 10.6598 24.2388C11.4412 24.2388 12.9746 24.3273 14.2573 24.5632C15.4073 24.6959 15.599 24.9318 16.1445 24.9318C16.5573 24.9318 17.206 24.7549 18.7836 24.2388C22.3369 23.2215 23.1773 22.4401 25.2562 20.376C26.0376 19.5945 27.0549 18.8131 27.571 18.8131ZM12.5617 32.1858C12.5617 31.3159 12.3701 30.4902 11.9572 29.6646C11.456 29.1633 10.6598 27.8658 9.87836 27.3645C9.1854 26.5389 8.86104 26.1703 8.62514 26.1703C8.44821 26.1703 8.30077 26.4062 8.06487 26.8632C7.37191 28.9274 6.91485 31.5518 6.91485 33.6159C6.91485 34.5743 7.00332 35.4589 7.28345 36.0486C7.97641 37.3756 8.8463 38.157 9.40656 38.157C9.45079 38.157 9.53926 38.157 9.59823 38.1128C10.6156 37.6115 11.6771 35.8127 12.1784 34.53C12.4143 33.7044 12.547 32.923 12.547 32.1858H12.5617ZM30.6672 24.46C30.1659 24.2241 29.6498 24.1799 29.6498 24.1799C29.1485 24.1799 28.3524 26.7011 28.3524 29.5614C28.3081 30.0184 28.3081 30.4312 28.3081 30.8441C28.3081 32.864 28.721 34.6627 29.3697 35.4884C29.5024 35.5326 29.6498 35.5326 29.7825 35.5326C30.5197 35.5326 31.1684 35.0756 31.8172 34.014C33.2031 31.9499 33.7634 31.3896 33.7634 29.3255C33.7634 27.5267 32.4659 25.4626 30.6672 24.46Z" fill="#0D5283"/>
<path d="M27.2614 7.37191C28.8899 7.37191 30.2102 5.72165 30.2102 3.68596C30.2102 1.65026 28.8899 0 27.2614 0C25.6328 0 24.3126 1.65026 24.3126 3.68596C24.3126 5.72165 25.6328 7.37191 27.2614 7.37191Z" fill="#1D97D5"/>
<path d="M11.6919 11.9572C11.6919 11.9572 13.5496 6.98858 21.01 5.13085C21.01 5.13085 23.8113 4.82123 23.8113 7.2982C23.8113 9.77516 26.2883 9.77516 26.2883 9.77516L30.0185 9.15592C30.0185 9.15592 32.4954 8.53668 32.4954 9.15592C32.4954 9.15592 33.1147 9.77516 31.257 11.0136C29.3992 12.2521 27.5268 12.2521 27.5268 12.2521C27.5268 12.2521 25.669 12.8714 21.3196 10.3944C16.9702 7.91744 15.7317 12.8714 16.3509 13.5053C16.9702 14.1393 16.9702 14.7438 21.3196 13.5053C25.669 12.2669 27.5268 15.3631 27.5268 17.8548C27.5268 17.8548 25.669 25.3004 23.1773 26.5536C23.1773 26.5536 22.5581 27.1729 20.7004 27.1729C18.8427 27.1729 20.7004 23.4427 20.7004 23.4427C20.7004 23.4427 23.8113 18.474 20.0811 17.2355C20.0811 17.2355 20.3908 16.9259 14.8028 17.5452C9.21493 18.1644 11.6919 11.9572 11.6919 11.9572Z" fill="#1D97D5"/>
</g>
<defs>
<clipPath id="clip0_1_1449">
<rect width="40" height="41.5628" fill="white"/>
</clipPath>
</defs>
</svg>
