<svg width="10" height="10" viewBox="0 0 10 10" fill="none" xmlns="http://www.w3.org/2000/svg">
<path d="M7.08333 4.18292C5.47542 4.18292 4.16667 5.49125 4.16667 7.09958C4.16667 8.69875 5.47542 10 7.08333 10C8.69125 10 10 8.69167 10 7.08333C10 5.48417 8.69125 4.18292 7.08333 4.18292ZM7.08333 9.16667C5.93458 9.16667 5 8.23917 5 7.09958C5 5.95083 5.93458 5.01625 7.08333 5.01625C8.23208 5.01625 9.16667 5.94375 9.16667 7.08333C9.16667 8.23208 8.23208 9.16667 7.08333 9.16667ZM7.79458 7.20542C7.9575 7.36833 7.9575 7.63167 7.79458 7.79458C7.71333 7.87583 7.60667 7.91667 7.5 7.91667C7.39333 7.91667 7.28667 7.87583 7.20542 7.79458L6.78875 7.37792C6.71042 7.29958 6.66667 7.19375 6.66667 7.08333V6.25C6.66667 6.02 6.85292 5.83333 7.08333 5.83333C7.31375 5.83333 7.5 6.02 7.5 6.25V6.91083L7.79458 7.20542ZM10 2.91667V3.75C10 3.98 9.81375 4.16667 9.58333 4.16667C9.35292 4.16667 9.16667 3.98 9.16667 3.75V2.91667C9.16667 2.2275 8.60583 1.66667 7.91667 1.66667H2.08333C1.39417 1.66667 0.833333 2.2275 0.833333 2.91667V3.33333H4.58333C4.81333 3.33333 5 3.52 5 3.75C5 3.98 4.81333 4.16667 4.58333 4.16667H0.833333V7.91667C0.833333 8.60583 1.39417 9.16667 2.08333 9.16667H3.75C3.98 9.16667 4.16667 9.35333 4.16667 9.58333C4.16667 9.81333 3.98 10 3.75 10H2.08333C0.934583 10 0 9.06542 0 7.91667V2.91667C0 1.76792 0.934583 0.833333 2.08333 0.833333H2.5V0.416667C2.5 0.186667 2.68667 0 2.91667 0C3.14667 0 3.33333 0.186667 3.33333 0.416667V0.833333H6.66667V0.416667C6.66667 0.186667 6.85292 0 7.08333 0C7.31375 0 7.5 0.186667 7.5 0.416667V0.833333H7.91667C9.06542 0.833333 10 1.76792 10 2.91667Z" fill="#848484"/>
</svg>
