<svg width="31" height="8" viewBox="0 0 31 8" fill="none" xmlns="http://www.w3.org/2000/svg">
<path d="M8.66645 4.00022C8.66645 6.14605 6.92339 7.88911 4.77756 7.88911C2.63173 7.88911 0.888672 6.14605 0.888672 4.00022C0.888672 1.85438 2.63173 0.111328 4.77756 0.111328C6.92339 0.111328 8.66645 1.85438 8.66645 4.00022ZM19.7776 4.00022C19.7776 6.14605 18.0345 7.88911 15.8887 7.88911C13.7428 7.88911 11.9998 6.14605 11.9998 4.00022C11.9998 1.85438 13.7428 0.111328 15.8887 0.111328C18.0345 0.111328 19.7776 1.85438 19.7776 4.00022ZM26.9998 7.88911C24.854 7.88911 23.1109 6.14605 23.1109 4.00022C23.1109 1.85438 24.854 0.111328 26.9998 0.111328C29.1456 0.111328 30.8887 1.85438 30.8887 4.00022C30.8887 6.14605 29.1456 7.88911 26.9998 7.88911Z" fill="#718096"/>
</svg>
