<svg width="38" height="38" viewBox="0 0 38 38" fill="none" xmlns="http://www.w3.org/2000/svg">
<path d="M1.5833 7.52108H5.9152C6.25504 8.77146 6.99687 9.87528 8.02626 10.6622C9.05564 11.4492 10.3154 11.8756 11.6111 11.8756C12.9069 11.8756 14.1666 11.4492 15.196 10.6622C16.2254 9.87528 16.9672 8.77146 17.307 7.52108H36.4159C36.8358 7.52108 37.2385 7.35427 37.5354 7.05734C37.8324 6.76041 37.9992 6.3577 37.9992 5.93778C37.9992 5.51786 37.8324 5.11514 37.5354 4.81822C37.2385 4.52129 36.8358 4.35448 36.4159 4.35448H17.307C16.9672 3.1041 16.2254 2.00028 15.196 1.21333C14.1666 0.426368 12.9069 0 11.6111 0C10.3154 0 9.05564 0.426368 8.02626 1.21333C6.99687 2.00028 6.25504 3.1041 5.9152 4.35448H1.5833C1.16338 4.35448 0.760664 4.52129 0.463737 4.81822C0.166811 5.11514 0 5.51786 0 5.93778C0 6.3577 0.166811 6.76041 0.463737 7.05734C0.760664 7.35427 1.16338 7.52108 1.5833 7.52108ZM11.6103 3.16701C12.1583 3.16701 12.694 3.32951 13.1497 3.63397C13.6053 3.93842 13.9605 4.37116 14.1702 4.87745C14.3799 5.38374 14.4348 5.94085 14.3279 6.47833C14.221 7.01581 13.9571 7.50951 13.5696 7.89701C13.1821 8.28451 12.6884 8.5484 12.1509 8.65531C11.6134 8.76222 11.0563 8.70735 10.55 8.49764C10.0437 8.28793 9.61097 7.93279 9.30652 7.47714C9.00206 7.02149 8.83956 6.48579 8.83956 5.93778C8.84039 5.20318 9.13258 4.49891 9.65202 3.97947C10.1715 3.46003 10.8757 3.16785 11.6103 3.16701Z" fill="#1992E3"/>
<path d="M36.4159 17.4168H32.084C31.7447 16.1661 31.0032 15.0619 29.9739 14.2746C28.9445 13.4874 27.6847 13.0608 26.3888 13.0608C25.093 13.0608 23.8331 13.4874 22.8038 14.2746C21.7745 15.0619 21.033 16.1661 20.6937 17.4168H1.5833C1.16338 17.4168 0.760664 17.5836 0.463737 17.8806C0.166811 18.1775 0 18.5802 0 19.0001C0 19.42 0.166811 19.8227 0.463737 20.1197C0.760664 20.4166 1.16338 20.5834 1.5833 20.5834H20.6937C21.033 21.8341 21.7745 22.9383 22.8038 23.7256C23.8331 24.5129 25.093 24.9394 26.3888 24.9394C27.6847 24.9394 28.9445 24.5129 29.9739 23.7256C31.0032 22.9383 31.7447 21.8341 32.084 20.5834H36.4159C36.8358 20.5834 37.2385 20.4166 37.5354 20.1197C37.8324 19.8227 37.9992 19.42 37.9992 19.0001C37.9992 18.5802 37.8324 18.1775 37.5354 17.8806C37.2385 17.5836 36.8358 17.4168 36.4159 17.4168ZM26.3888 21.7709C25.8408 21.7709 25.3051 21.6084 24.8495 21.3039C24.3938 20.9995 24.0387 20.5667 23.829 20.0604C23.6193 19.5542 23.5644 18.997 23.6713 18.4596C23.7782 17.9221 24.0421 17.4284 24.4296 17.0409C24.8171 16.6534 25.3108 16.3895 25.8483 16.2826C26.3858 16.1757 26.9429 16.2305 27.4492 16.4403C27.9555 16.65 28.3882 17.0051 28.6927 17.4608C28.9971 17.9164 29.1596 18.4521 29.1596 19.0001C29.1588 19.7347 28.8666 20.439 28.3471 20.9584C27.8277 21.4779 27.1234 21.77 26.3888 21.7709Z" fill="#1992E3"/>
<path d="M36.4159 30.479H17.307C16.9672 29.2286 16.2254 28.1248 15.196 27.3378C14.1666 26.5509 12.9069 26.1245 11.6111 26.1245C10.3154 26.1245 9.05564 26.5509 8.02626 27.3378C6.99687 28.1248 6.25504 29.2286 5.9152 30.479H1.5833C1.16338 30.479 0.760664 30.6458 0.463737 30.9427C0.166811 31.2397 0 31.6424 0 32.0623C0 32.4822 0.166811 32.8849 0.463737 33.1819C0.760664 33.4788 1.16338 33.6456 1.5833 33.6456H5.9152C6.25504 34.896 6.99687 35.9998 8.02626 36.7867C9.05564 37.5737 10.3154 38.0001 11.6111 38.0001C12.9069 38.0001 14.1666 37.5737 15.196 36.7867C16.2254 35.9998 16.9672 34.896 17.307 33.6456H36.4159C36.8358 33.6456 37.2385 33.4788 37.5354 33.1819C37.8324 32.8849 37.9992 32.4822 37.9992 32.0623C37.9992 31.6424 37.8324 31.2397 37.5354 30.9427C37.2385 30.6458 36.8358 30.479 36.4159 30.479ZM11.6103 34.8331C11.0623 34.8331 10.5266 34.6706 10.071 34.3661C9.61532 34.0617 9.26018 33.6289 9.05047 33.1226C8.84076 32.6163 8.78588 32.0592 8.8928 31.5217C8.99971 30.9843 9.2636 30.4906 9.6511 30.1031C10.0386 29.7156 10.5323 29.4517 11.0698 29.3448C11.6073 29.2378 12.1644 29.2927 12.6707 29.5024C13.1769 29.7121 13.6097 30.0673 13.9141 30.5229C14.2186 30.9786 14.3811 31.5143 14.3811 32.0623C14.3798 32.7968 14.0875 33.5008 13.5682 34.0201C13.0488 34.5395 12.3448 34.8318 11.6103 34.8331Z" fill="#1992E3"/>
</svg>
