<svg width="42" height="28" viewBox="0 0 42 28" fill="none" xmlns="http://www.w3.org/2000/svg">
<path d="M1.74996 8.31277H6.53786C6.91346 9.69477 7.73338 10.9148 8.87113 11.7846C10.0089 12.6544 11.4012 13.1256 12.8333 13.1256C14.2655 13.1256 15.6578 12.6544 16.7956 11.7846C17.9333 10.9148 18.7532 9.69477 19.1288 8.31277H40.2491C40.7132 8.31277 41.1583 8.1284 41.4865 7.80022C41.8147 7.47204 41.9991 7.02693 41.9991 6.56281C41.9991 6.09869 41.8147 5.65358 41.4865 5.3254C41.1583 4.99722 40.7132 4.81285 40.2491 4.81285H19.1288C18.7532 3.43085 17.9333 2.21084 16.7956 1.34104C15.6578 0.471249 14.2655 0 12.8333 0C11.4012 0 10.0089 0.471249 8.87113 1.34104C7.73338 2.21084 6.91346 3.43085 6.53786 4.81285H1.74996C1.28584 4.81285 0.840733 4.99722 0.512552 5.3254C0.18437 5.65358 0 6.09869 0 6.56281C0 7.02693 0.18437 7.47204 0.512552 7.80022C0.840733 8.1284 1.28584 8.31277 1.74996 8.31277ZM12.8325 3.50038C13.4382 3.50038 14.0303 3.67998 14.5339 4.01649C15.0375 4.35299 15.43 4.83128 15.6618 5.39087C15.8936 5.95045 15.9542 6.56621 15.8361 7.16026C15.7179 7.75431 15.4262 8.29999 14.9979 8.72828C14.5696 9.15656 14.024 9.44823 13.4299 9.5664C12.8359 9.68456 12.2201 9.62392 11.6605 9.39213C11.1009 9.16034 10.6227 8.76782 10.2861 8.26421C9.94965 7.76059 9.77004 7.1685 9.77004 6.56281C9.77096 5.75089 10.0939 4.97248 10.668 4.39837C11.2421 3.82425 12.0205 3.5013 12.8325 3.50038Z" fill="#848484"/>
<path d="M40.2491 19.25H35.4612C35.0862 17.8677 34.2667 16.6472 33.129 15.7771C31.9913 14.9069 30.5989 14.4354 29.1666 14.4354C27.7343 14.4354 26.3419 14.9069 25.2042 15.7771C24.0666 16.6472 23.247 17.8677 22.872 19.25H1.74996C1.28584 19.25 0.840733 19.4343 0.512552 19.7625C0.18437 20.0907 0 20.5358 0 20.9999C0 21.4641 0.18437 21.9092 0.512552 22.2373C0.840733 22.5655 1.28584 22.7499 1.74996 22.7499H22.872C23.247 24.1322 24.0666 25.3527 25.2042 26.2228C26.3419 27.093 27.7343 27.5645 29.1666 27.5645C30.5989 27.5645 31.9913 27.093 33.129 26.2228C34.2667 25.3527 35.0862 24.1322 35.4612 22.7499H40.2491C40.7132 22.7499 41.1583 22.5655 41.4865 22.2373C41.8147 21.9092 41.9991 21.4641 41.9991 20.9999C41.9991 20.5358 41.8147 20.0907 41.4865 19.7625C41.1583 19.4343 40.7132 19.25 40.2491 19.25ZM29.1666 24.0624C28.5609 24.0624 27.9688 23.8828 27.4652 23.5463C26.9616 23.2098 26.5691 22.7315 26.3373 22.1719C26.1055 21.6123 26.0449 20.9965 26.163 20.4025C26.2812 19.8084 26.5729 19.2628 27.0011 18.8345C27.4294 18.4062 27.9751 18.1145 28.5692 17.9964C29.1632 17.8782 29.779 17.9388 30.3386 18.1706C30.8981 18.4024 31.3764 18.7949 31.7129 19.2985C32.0494 19.8022 32.229 20.3942 32.229 20.9999C32.2281 21.8119 31.9052 22.5903 31.3311 23.1644C30.7569 23.7385 29.9785 24.0614 29.1666 24.0624Z" fill="#848484"/>
</svg>
