<svg width="37" height="25" viewBox="0 0 37 25" fill="none" xmlns="http://www.w3.org/2000/svg">
<path d="M18.3515 12.1916C18.9937 12.2287 19.6358 12.2713 20.2786 12.2949C20.6192 12.2531 20.9608 12.2383 21.3059 12.2977C21.3735 12.2997 21.4408 12.3025 21.5084 12.3052C21.9021 12.3025 22.2958 12.3059 22.6892 12.31C23.0712 12.3138 23.4528 12.3176 23.8348 12.3155C24.222 12.2922 24.6077 12.3032 24.9932 12.3282C25.6174 12.3039 26.2423 12.3008 26.8675 12.3196C27.3012 12.3196 27.7315 12.3824 28.1639 12.4044C29.0942 12.3992 30.0251 12.3666 30.9516 12.4524C31.0071 12.4562 31.0627 12.46 31.1179 12.4638C31.4543 12.4593 31.7904 12.459 32.1265 12.485C32.1465 12.4816 32.1658 12.4778 32.1834 12.4741C32.7176 12.3797 33.2604 12.4267 33.7987 12.3828C33.9739 12.3715 34.1496 12.3605 34.3245 12.3509C34.33 12.3488 34.3352 12.3471 34.3407 12.3454C34.388 12.3423 34.4353 12.3395 34.4822 12.3382C34.4881 12.3395 34.4939 12.3406 34.4998 12.3419C34.6551 12.3344 34.8104 12.3279 34.9653 12.3238C35.0836 12.2953 35.2179 12.3076 35.3366 12.2994C35.4698 12.2997 35.603 12.2908 35.7358 12.2822C35.8366 12.2754 35.9377 12.2695 36.0388 12.2668C36.2537 12.2795 36.4677 12.3001 36.6816 12.3255C36.7482 12.3378 36.8151 12.3234 36.8707 12.2918C36.8721 12.2977 36.8738 12.3035 36.8752 12.31C36.8762 12.3244 36.8769 12.3389 36.8776 12.3529C36.8893 12.3509 36.9011 12.3481 36.9121 12.3443C36.9138 12.3344 36.9152 12.3248 36.9169 12.3152C36.9124 12.3001 36.9087 12.2846 36.9049 12.2692C36.9922 12.2016 37.0349 12.0873 36.9652 11.9758C36.9452 11.9439 36.9166 11.9178 36.8835 11.8996C36.8635 11.8749 36.84 11.8578 36.8148 11.8454C36.7986 11.5119 36.7686 11.1787 36.7658 10.8438C36.7203 9.87475 36.7727 8.90229 36.7924 7.93257C36.7931 7.87149 36.7924 7.81041 36.7913 7.74967C36.7969 7.70163 36.802 7.65325 36.8076 7.60521C36.8272 6.95393 36.79 6.3023 36.8245 5.65067C36.8507 5.12223 36.8038 4.59791 36.753 4.07393C36.7724 3.37804 36.7855 2.68249 36.7448 1.98969C36.7337 1.9166 36.724 1.84351 36.7151 1.77042C36.781 1.49351 36.7579 1.19532 36.6419 0.934184C36.6223 0.654866 36.6026 0.376235 36.5695 0.0996623C36.4832 -0.0667616 36.3421 0.000837348 36.2882 0.116476C36.2486 0.122653 36.2103 0.130202 36.1782 0.134663C36.1247 0.143241 36.0712 0.151477 36.0181 0.159026C35.9401 0.154565 35.8618 0.164859 35.7879 0.189222C35.7555 0.192997 35.7227 0.197115 35.6903 0.200546C35.4201 0.147702 35.1302 0.152163 34.8611 0.168291C34.298 0.147016 33.7372 0.196771 33.1765 0.233831C33.0278 0.240351 32.8791 0.244125 32.73 0.24687C32.2152 0.226968 31.7004 0.203977 31.1869 0.194369C30.7114 0.144957 30.237 0.210154 29.7636 0.247556C29.1173 0.308979 28.4662 0.274665 27.8226 0.351529C27.8047 0.356676 27.7684 0.36045 27.7191 0.363882C27.284 0.344666 26.8485 0.327509 26.4124 0.324763C25.7678 0.30143 25.127 0.214615 24.4825 0.196085C24.2337 0.189222 23.9846 0.192997 23.7358 0.197458C23.3414 0.203977 22.947 0.210497 22.5533 0.173095C22.0467 0.126427 21.5409 0.149075 21.0347 0.172065C20.592 0.191967 20.1486 0.212213 19.7048 0.185448C18.4329 0.0430438 17.1569 0.0938288 15.8812 0.0643186C15.3036 0.0807894 14.7332 0.211183 14.1529 0.173781C13.5721 0.141869 12.9976 0.208781 12.4231 0.275694C12.2043 0.301087 11.9856 0.326479 11.7664 0.346381C10.8662 0.28839 9.96593 0.226968 9.0643 0.19986C7.85557 0.174467 6.64062 0.184418 5.43913 0.335744C3.8184 0.230743 2.19629 0.15182 0.573835 0.137065C0.475838 0.102407 0.377497 0.0684363 0.280191 0.0324064C0.199103 0.00529819 0.115944 0.0653481 0.0976562 0.141869C0.130782 0.147016 0.159076 0.173438 0.162872 0.207752C0.166323 0.240351 0.172534 0.271233 0.17978 0.301773C0.223947 0.331626 0.278466 0.349813 0.33471 0.365941C0.368871 0.448981 0.456515 0.507658 0.560377 0.441089C1.02517 0.575257 1.37989 0.908448 1.75703 1.1936C2.05275 1.43448 2.41023 1.58341 2.70836 1.82189C3.2325 2.21239 3.80426 2.53734 4.32012 2.93882C4.97883 3.51598 5.64582 4.08114 6.35491 4.59825C6.9108 5.03782 7.60989 5.22312 8.19579 5.61361C8.87279 6.16092 9.53013 6.73157 10.2451 7.23393C10.9507 7.73972 11.6864 8.20914 12.4155 8.67821C12.7323 8.82233 13.0411 8.9819 13.3475 9.14523C13.6749 9.36793 14.0079 9.58239 14.324 9.82088C14.6597 10.1009 14.9586 10.4224 15.2826 10.7144C15.815 11.1039 16.3985 11.4501 17.0141 11.715C17.2987 11.9175 17.5779 12.1268 17.8398 12.3608C17.8415 12.3601 17.8429 12.3591 17.8446 12.3584C17.9019 12.2318 18.0603 12.1354 18.3515 12.192V12.1916ZM7.77482 0.493589C7.76827 0.493589 7.76171 0.493589 7.75516 0.493246C7.71202 0.490158 7.66855 0.48707 7.62541 0.483981C7.71513 0.482609 7.8045 0.481236 7.89421 0.48055C7.85453 0.485011 7.81451 0.489472 7.77482 0.493589Z" fill="#1543A5"/>
<path d="M36.897 23.3512C36.8974 22.5809 36.9019 21.8047 36.8139 21.0388C36.7949 20.6483 36.7393 20.2609 36.7521 19.869C36.7635 19.5218 36.8298 19.0997 36.8149 18.7298C36.7842 18.2676 36.8532 17.8081 36.8525 17.3459C36.8656 16.989 36.8405 16.6322 36.8587 16.2756C36.9136 16.2001 36.9447 16.1075 36.9422 16.0073C36.9405 15.938 36.9222 15.8731 36.8915 15.8151C36.915 15.204 37.0247 14.5809 36.8639 13.9848C36.8367 13.6348 36.8643 13.2824 36.8788 12.931C36.8663 12.918 36.8567 12.9019 36.8511 12.8833C36.8442 12.8607 36.8408 12.8391 36.8408 12.8154C36.8408 12.7955 36.8449 12.7759 36.8474 12.756C36.8501 12.733 36.8529 12.71 36.8563 12.6871C36.8646 12.6352 36.8729 12.5834 36.8815 12.532C36.8829 12.5248 36.8839 12.5175 36.8853 12.5107C36.8843 12.4578 36.8819 12.4053 36.8784 12.3525C36.8774 12.3381 36.877 12.3237 36.876 12.3096C36.875 12.3034 36.8732 12.2976 36.8715 12.2914C36.816 12.323 36.749 12.3374 36.6824 12.325C36.4685 12.2993 36.2542 12.2791 36.0396 12.2664C35.9385 12.2691 35.8377 12.2749 35.7366 12.2818C35.6038 12.2904 35.4706 12.2993 35.3374 12.299C35.2187 12.3072 35.0848 12.2948 34.9661 12.3233C34.8108 12.3274 34.6559 12.334 34.5006 12.3415C34.4423 12.3443 34.384 12.3473 34.3253 12.3508C34.15 12.3604 33.9748 12.3714 33.7995 12.3827C33.2612 12.427 32.7184 12.3799 32.1843 12.474C32.1667 12.4781 32.1473 12.4815 32.1273 12.4849C31.7912 12.4589 31.4552 12.4592 31.1187 12.4637C31.0632 12.4599 31.0076 12.4561 30.9524 12.4523C30.0259 12.3666 29.095 12.3992 28.1647 12.4043C27.732 12.3823 27.3017 12.3196 26.8683 12.3196C26.2434 12.3007 25.6182 12.3038 24.994 12.3281C24.6085 12.3031 24.2224 12.2921 23.8356 12.3154C23.4536 12.3175 23.072 12.3137 22.69 12.3099C22.2963 12.3062 21.9029 12.3024 21.5092 12.3051C21.4416 12.3024 21.3743 12.2997 21.3067 12.2976C20.9616 12.2382 20.6197 12.253 20.2795 12.2948C19.6366 12.2712 18.9948 12.2286 18.3523 12.1916C18.0611 12.1346 17.9027 12.231 17.8454 12.358C17.8437 12.3587 17.8423 12.3597 17.8406 12.3604C17.7654 12.3995 17.6929 12.4445 17.6198 12.4877C17.5915 12.4952 17.5642 12.5073 17.5383 12.5261C17.5242 12.5344 17.5121 12.544 17.5007 12.5539C17.4717 12.5687 17.4424 12.5827 17.412 12.5954C17.2157 12.674 17.0477 12.8075 16.8737 12.9252C16.7399 13.0117 16.578 13.118 16.5905 13.2979C16.5905 13.2999 16.5908 13.3023 16.5911 13.3044C16.5201 13.3517 16.4479 13.3967 16.3741 13.4385C15.6895 13.9313 14.9887 14.3976 14.3124 14.9007C13.9687 15.2002 13.6012 15.4679 13.1982 15.683C12.7065 15.9936 12.1958 16.2815 11.7479 16.6541C11.3163 16.9496 10.8877 17.2505 10.4436 17.5267C10.0382 17.7463 9.71278 18.072 9.34633 18.3455C8.89396 18.6931 8.38776 18.9576 7.93091 19.297C7.04515 19.764 6.18527 20.2774 5.38335 20.8789C5.05831 21.1047 4.71015 21.2972 4.47378 21.6228C4.1025 21.8438 3.71259 22.0342 3.36063 22.2871C3.05802 22.5332 2.68259 22.6694 2.38861 22.9261C2.19399 23.1035 1.98834 23.2706 1.7644 23.4102C1.49456 23.5746 1.22404 23.741 0.961796 23.9129C0.868976 23.9246 0.804105 23.9867 0.77305 24.0636C0.739924 24.065 0.706799 24.066 0.673329 24.067C0.342419 24.0739 0.361052 24.5821 0.677814 24.5821C0.683335 24.5821 0.688856 24.5821 0.694377 24.5817C1.14606 24.5721 1.59429 24.508 2.0432 24.4544C2.18709 24.4599 2.33029 24.4664 2.46935 24.4884C2.80198 24.4867 3.13462 24.4805 3.4676 24.4712C3.51349 24.5066 3.56697 24.533 3.62839 24.5464C3.71811 24.5622 3.80679 24.5515 3.89581 24.5412C3.9945 24.5296 4.09353 24.5179 4.19429 24.5423C5.05003 24.4918 5.89818 24.5684 6.75461 24.5917C7.91124 24.6064 9.06649 24.5732 10.2224 24.5323C10.9643 24.5268 11.7038 24.6116 12.4453 24.6157C13.4256 24.5958 14.4042 24.5272 15.3852 24.5378C15.6678 24.5629 15.949 24.5505 16.2306 24.5378C16.5497 24.5237 16.8689 24.5093 17.1895 24.5505C17.9797 24.5008 18.7681 24.4966 19.5593 24.5457C20.1338 24.5179 20.7084 24.5042 21.2825 24.5004C21.6041 24.5093 21.9254 24.5117 22.247 24.5028C23.2349 24.5131 24.2228 24.5464 25.211 24.5828C28.4249 24.627 31.6418 24.5498 34.8522 24.7519C34.8878 24.7526 34.923 24.753 34.9585 24.753C35.5034 24.753 36.0482 24.6624 36.5865 24.5865C36.9598 24.5234 37.0289 24.1507 36.8853 23.9088C36.8919 23.7019 36.8739 23.4844 36.8967 23.3519L36.897 23.3512ZM36.3719 23.6082C36.3705 23.5959 36.3691 23.5839 36.3674 23.5708C36.3694 23.5691 36.3715 23.5671 36.3736 23.565C36.3732 23.5794 36.3726 23.5938 36.3722 23.6082H36.3719ZM36.2873 18.7679C36.2873 18.7679 36.2877 18.7675 36.288 18.7672V18.7693C36.288 18.7693 36.2877 18.7686 36.2873 18.7682V18.7679ZM36.414 14.4824C36.4202 14.4772 36.4254 14.4714 36.4312 14.4662C36.4323 14.4738 36.4333 14.481 36.4343 14.4886C36.4343 14.4906 36.4343 14.4923 36.4343 14.4944C36.4278 14.4903 36.4212 14.4862 36.4143 14.4827L36.414 14.4824ZM13.7938 18.1338C13.7845 18.1355 13.7751 18.1368 13.7658 18.1386C13.7651 18.1183 13.7631 18.0981 13.7596 18.0782C13.7689 18.0867 13.7782 18.0953 13.7882 18.1032C13.7927 18.1073 13.7972 18.1114 13.8017 18.1156C13.7986 18.1217 13.7962 18.1279 13.7938 18.1338ZM18.9952 17.3891C18.9772 17.3946 18.9589 17.3998 18.9406 17.4053C18.8958 17.4066 18.8509 17.408 18.8064 17.4097C18.8233 17.4025 18.8399 17.3957 18.8568 17.3884C18.903 17.3888 18.9489 17.3891 18.9952 17.3895V17.3891ZM22.4506 12.8782C22.4457 12.8751 22.4402 12.8724 22.4354 12.8693C22.4578 12.8706 22.4802 12.872 22.5023 12.8737C22.4851 12.8751 22.4678 12.8768 22.4506 12.8782Z" fill="#DE0000"/>
<path d="M0.0976456 0.141821C0.0903994 0.140791 0.0834982 0.140105 0.075907 0.141134C0.0100011 0.155546 0.00275495 0.207704 0.0117264 0.264322C-0.00104068 0.284911 -0.00380113 0.311333 0.0055154 0.336039C0.0162122 0.36349 0.0255287 0.391285 0.0338101 0.419422C0.0303595 0.437266 0.0324298 0.456139 0.0420914 0.472609C0.0441618 0.476041 0.0469222 0.4781 0.0489926 0.480845C0.0524431 0.497659 0.0555486 0.514816 0.057619 0.531973C0.104547 0.893302 0.09454 1.25875 0.0828081 1.62179C0.0800477 2.24082 0.0679707 2.86019 0.0900543 3.47888C0.105582 3.84844 0.157685 4.2156 0.15596 4.58585C0.154235 4.8161 0.180804 5.04532 0.181494 5.27523C0.182875 5.50067 0.185635 5.7268 0.189431 5.95224C0.188395 6.32181 0.216345 6.69 0.219796 7.05956C0.231528 7.95173 0.222556 8.84356 0.228422 9.73573C0.210134 10.5009 0.168382 11.2661 0.169417 12.032C0.172178 12.2582 0.151474 12.4836 0.133531 12.7087C0.107652 13.1424 0.118004 13.5769 0.116969 14.0109C0.126285 14.7192 0.143538 15.4274 0.182875 16.135C0.195987 16.5094 0.185635 16.8837 0.202888 17.2581C0.203578 17.5134 0.234288 17.7666 0.257752 18.0202C0.276385 18.4677 0.27673 18.9165 0.271554 19.3643C0.259132 19.6014 0.242224 19.8385 0.250161 20.076C0.260167 20.3162 0.272244 20.5557 0.249471 20.7952C0.198402 21.2547 0.193916 21.7158 0.184255 22.1774C0.148024 22.6784 0.18529 23.1787 0.200818 23.6793C0.199782 23.8015 0.215655 23.9243 0.209789 24.0461C0.168037 24.1576 0.150094 24.2757 0.138362 24.3937C0.132841 24.4352 0.162516 24.4751 0.204613 24.4809C0.208064 24.4812 0.211514 24.4816 0.214965 24.4816C0.252576 24.4816 0.287427 24.4531 0.292258 24.4147C0.300539 24.3512 0.307785 24.2877 0.318137 24.2246C0.332284 24.1666 0.356093 24.1117 0.3661 24.053C0.372311 23.9974 0.361959 23.9411 0.361959 23.8845C0.352297 23.341 0.300539 22.7974 0.33608 22.2539C0.352988 21.9523 0.343326 21.6496 0.359889 21.348C0.376451 21.1123 0.401641 20.8772 0.415098 20.6415C0.42683 20.4167 0.404746 20.1926 0.404056 19.9682C0.404056 19.6488 0.438562 19.33 0.429245 19.0102C0.425449 18.6423 0.432351 18.2738 0.404401 17.9066C0.352988 17.4856 0.349192 17.0611 0.346431 16.6377C0.351262 16.1943 0.313306 15.752 0.301574 15.3094C0.277075 14.4395 0.250161 13.5676 0.289497 12.6981C0.320897 12.3992 0.326418 12.0993 0.325728 11.799C0.329869 11.2459 0.353333 10.6928 0.371966 10.1396C0.39543 9.1215 0.378522 8.10203 0.375071 7.08358C0.365065 6.58466 0.339185 6.0871 0.33884 5.58783C0.343671 5.28518 0.324348 4.99076 0.312271 4.68708C0.313651 4.35801 0.288117 4.02962 0.257752 3.70192C0.217035 3.03554 0.236358 2.36744 0.236358 1.70037C0.235668 1.5789 0.277075 0.808202 0.198057 0.433491C0.203233 0.414618 0.203923 0.394373 0.196677 0.374471C0.190811 0.350108 0.1846 0.326088 0.179079 0.302411C0.171833 0.271871 0.165622 0.241332 0.162171 0.20839C0.158376 0.174076 0.129736 0.147654 0.0969554 0.142507L0.0976456 0.141821Z" fill="#FFEC98"/>
<path d="M4.12739 10.2343C3.9697 10.0772 3.79338 9.9365 3.65915 9.75704C3.58876 9.66062 3.51733 9.55905 3.44659 9.45713C3.38759 9.36311 3.30823 9.266 3.18884 9.25605C3.13087 9.24782 3.07186 9.25296 3.01389 9.25537C2.91141 9.25296 2.80134 9.23821 2.70334 9.27424C2.69989 9.27595 2.69713 9.27835 2.69402 9.28041C2.68022 9.28625 2.66815 9.29517 2.66055 9.30787C2.63813 9.35042 2.61052 9.41012 2.65055 9.45061C2.6571 9.56351 2.70507 9.66919 2.74475 9.77351C2.74406 9.78689 2.74647 9.7989 2.75027 9.81023C2.71852 9.84008 2.71059 9.89086 2.76373 9.93067C2.7934 10.0147 2.87104 10.0669 2.94454 10.1101C3.03839 10.1623 3.13052 10.2158 3.21541 10.2817C3.36033 10.4076 3.52354 10.5095 3.66432 10.6406C3.77543 10.7364 3.89413 10.8338 3.95245 10.967C3.87791 10.9258 3.81304 10.8678 3.73437 10.8331C3.59462 10.7889 3.4673 10.7213 3.3517 10.631C3.24922 10.5555 3.14122 10.4886 3.03425 10.4196C3.03149 10.4159 3.02804 10.4124 3.02424 10.409C2.9542 10.3575 2.90244 10.2875 2.85724 10.2144C2.84309 10.1939 2.82515 10.1832 2.80617 10.1801C2.79444 10.1547 2.77373 10.1369 2.73612 10.1366C2.61742 10.1496 2.67539 10.291 2.68057 10.3682C2.70024 10.4289 2.70162 10.4938 2.72611 10.5548C2.75993 10.6338 2.82618 10.699 2.89692 10.7467C2.93246 10.7775 2.97766 10.7906 3.017 10.8149C3.08014 10.8757 3.1702 10.8925 3.25302 10.9093C3.2544 10.9093 3.25578 10.9093 3.25716 10.9093C3.26716 10.9093 3.27683 10.9076 3.2858 10.9045C3.35757 10.9433 3.429 10.9817 3.50215 11.0171C3.50456 11.0181 3.50698 11.0191 3.50905 11.0201C3.57702 11.1111 3.62671 11.2199 3.67226 11.3214C3.67675 11.3327 3.68089 11.3444 3.68537 11.3561C3.66398 11.4398 3.6381 11.5218 3.58634 11.5939C3.5401 11.6611 3.47868 11.7212 3.40174 11.7514C3.37655 11.7548 3.34411 11.76 3.31306 11.7696C3.24025 11.7466 3.16675 11.7277 3.09222 11.7116C3.07186 11.7037 3.0515 11.6951 3.03115 11.6865C2.98284 11.6577 2.93211 11.6347 2.87932 11.6176C2.84171 11.5997 2.8041 11.5815 2.76614 11.5637C2.57394 11.469 2.34276 11.5026 2.16574 11.6152C2.15125 11.6224 2.14124 11.632 2.134 11.6426C2.13227 11.6433 2.13089 11.6436 2.12917 11.644C2.11088 11.6522 2.09846 11.6646 2.09121 11.6783C2.03635 11.6937 1.9732 11.7208 1.99218 11.7895C1.99632 11.8046 2.00564 11.8176 2.01771 11.8272C2.02876 11.8509 2.05153 11.8691 2.07913 11.8722C2.12296 11.8763 2.16678 11.8821 2.21025 11.8855H2.21095C2.23579 11.8855 2.25442 11.8749 2.26719 11.8595C2.29272 11.8602 2.3186 11.8608 2.34414 11.8615C2.47008 11.8608 2.59534 11.8725 2.72059 11.8818C2.72439 11.8818 2.72819 11.8818 2.73198 11.8818C2.74578 11.8818 2.75993 11.8811 2.77373 11.8797C2.86345 11.8941 2.95316 11.9079 3.04322 11.9199C3.20505 11.9319 3.36067 11.984 3.52078 12.0091C3.53148 12.0135 3.54217 12.0177 3.55253 12.0221C3.53976 12.0482 3.52492 12.0726 3.50525 12.0925C3.48489 12.1172 3.44866 12.1367 3.4145 12.157C3.39483 12.1573 3.37586 12.157 3.35791 12.1535C3.23852 12.1405 3.11844 12.1419 2.99871 12.1429C2.87449 12.1443 2.75027 12.1453 2.62708 12.1309C2.38416 12.0983 1.88625 11.9631 1.68646 12.1045C1.61883 12.1508 1.55637 12.2006 1.516 12.2736C1.47977 12.3268 1.43974 12.3828 1.44595 12.4507C1.4494 12.4758 1.46183 12.4933 1.47804 12.5042C1.5198 12.5591 1.59295 12.5821 1.65402 12.6113C1.73028 12.6659 1.80688 12.7208 1.89211 12.7592C1.8897 12.7719 1.88935 12.786 1.89211 12.8024C1.90005 12.8388 1.93455 12.8597 1.96872 12.8597C1.99045 12.8597 2.01185 12.8512 2.02599 12.833C2.36208 12.7921 2.70576 12.7245 3.04529 12.7067C3.15985 12.6899 3.27337 12.6689 3.38759 12.6501C3.41864 12.6758 3.44832 12.7026 3.47558 12.7314C3.45418 12.7475 3.43141 12.7619 3.4076 12.7739C3.31823 12.8014 3.22817 12.8264 3.13604 12.8429C3.10326 12.8491 3.08359 12.8711 3.07635 12.8961C3.03701 12.8947 2.98836 12.917 2.94109 12.9431C2.91176 12.9469 2.88243 12.9503 2.8531 12.9531C2.68919 12.9726 2.52702 13.0032 2.36381 13.0268C2.30894 13.0358 2.25201 13.031 2.19783 13.0426C2.14262 13.0588 2.11951 13.126 2.15298 13.172C2.16643 13.1933 2.1899 13.2049 2.21371 13.2063C2.26926 13.2657 2.41073 13.289 2.4725 13.2959C2.47422 13.2959 2.47629 13.2959 2.47802 13.2959C2.50321 13.2959 2.52771 13.2924 2.55186 13.2866C2.56083 13.29 2.57015 13.2921 2.57981 13.2921C2.59706 13.2921 2.61466 13.2866 2.63019 13.2763C2.72508 13.243 2.81825 13.2063 2.91107 13.1682C3.0063 13.1267 3.10361 13.091 3.2016 13.0567C3.26371 13.0457 3.32582 13.034 3.38793 13.022C3.40691 13.0591 3.45039 13.0845 3.49214 13.0656C3.50594 13.069 3.51906 13.0738 3.53079 13.0797C3.55494 13.1137 3.58013 13.1469 3.59807 13.1847C3.62947 13.2578 3.66743 13.3274 3.70297 13.3985C3.70677 13.4122 3.71022 13.4259 3.71367 13.4396C3.71988 13.4866 3.7285 13.5333 3.73886 13.5796C3.6802 13.6126 3.62188 13.6466 3.5646 13.6826C3.34515 13.7951 3.11223 13.8981 2.93729 14.0751C2.88174 14.1225 2.81963 14.1678 2.78443 14.2326C2.75821 14.2858 2.74337 14.3438 2.72163 14.3987C2.69368 14.4564 2.67988 14.5476 2.75613 14.5727C2.76545 14.5765 2.77477 14.5782 2.78408 14.5782C2.80582 14.5782 2.82584 14.5682 2.84033 14.5531C2.84205 14.5531 2.84378 14.5542 2.84585 14.5542C2.84861 14.5542 2.85172 14.5545 2.85448 14.5545C2.89243 14.5545 2.92694 14.5253 2.93177 14.4869C3.14846 14.3078 3.37586 14.141 3.58565 13.9537C3.59152 13.9544 3.59773 13.955 3.60394 13.9547C3.61015 13.9564 3.61636 13.9574 3.62257 13.9574C3.66018 13.9574 3.6971 13.9269 3.70056 13.8885C3.7744 13.8397 3.85514 13.7968 3.93933 13.7639C3.95003 13.7769 3.96176 13.7893 3.97453 13.7999C3.91656 13.9094 3.82685 13.9996 3.72436 14.0693C3.59773 14.1771 3.4742 14.2889 3.35584 14.4056C3.29132 14.4299 3.22714 14.5199 3.17883 14.5535C2.99457 14.7151 2.74199 14.8733 2.70886 15.1354C2.70541 15.2219 2.68885 15.3091 2.71197 15.3938C2.69402 15.4302 2.70714 15.4755 2.74302 15.4954C2.75475 15.5019 2.76752 15.505 2.78063 15.505C2.79099 15.505 2.80168 15.5026 2.81134 15.4988C2.82135 15.4971 2.83067 15.494 2.83929 15.4885C2.89278 15.482 2.94661 15.4772 3.00043 15.4717C3.04357 15.47 3.0867 15.4755 3.12949 15.4813C3.16399 15.4858 3.19884 15.4903 3.23335 15.4909C3.24163 15.4978 3.25198 15.504 3.26509 15.5095C3.27199 15.5112 3.27924 15.5122 3.28649 15.5122C3.32065 15.5122 3.35481 15.4923 3.36827 15.4621C3.38276 15.4494 3.39069 15.4319 3.39242 15.4137C3.63154 15.1193 3.86963 14.8355 4.10531 14.5367C4.12325 14.5061 4.14188 14.4756 4.16086 14.4457C4.1719 14.4344 4.18294 14.4234 4.19399 14.4138C4.22711 14.3829 4.26127 14.3497 4.29854 14.3215C4.31614 14.3311 4.33753 14.3342 4.3572 14.3291C4.36513 14.3424 4.37238 14.3562 4.37928 14.3699C4.38618 14.384 4.39308 14.398 4.40033 14.4118C4.37169 14.4608 4.34236 14.5096 4.31234 14.5576C4.26645 14.5689 4.24747 14.6231 4.23367 14.6801C4.12566 14.8438 4.01042 15.003 3.89379 15.1598C3.83789 15.2346 3.79338 15.3177 3.73506 15.3907C3.6902 15.4172 3.67364 15.4803 3.71332 15.5187C3.73334 15.5338 3.75231 15.5404 3.76991 15.5404C3.77716 15.5404 3.78371 15.539 3.79061 15.5369C3.8058 15.5558 3.82754 15.5657 3.85031 15.5657C3.86377 15.5657 3.87722 15.5623 3.88965 15.5558C3.96866 15.5139 4.0394 15.4587 4.11842 15.4168C4.15016 15.4045 4.17259 15.376 4.17397 15.3441C4.2002 15.3396 4.22435 15.3235 4.23332 15.2974C4.27956 15.1674 4.33304 15.0404 4.38446 14.9124C4.39032 14.898 4.39101 14.8829 4.38791 14.8685C4.4376 14.7721 4.48211 14.6729 4.5211 14.5713C4.54663 14.5689 4.57079 14.5555 4.58597 14.5264C4.61461 14.512 4.64705 14.514 4.67845 14.5157C4.69018 14.5164 4.70191 14.5171 4.7133 14.5168C4.73159 14.5301 4.75056 14.5428 4.77058 14.5538C4.87271 14.5981 4.98693 14.6067 5.0932 14.6403C5.1391 14.675 5.18085 14.7151 5.21604 14.7642C5.20466 14.8366 5.19189 14.909 5.17947 14.981C5.17153 15.0157 5.16325 15.05 5.15566 15.0847C5.10459 15.2387 5.05628 15.3931 5.00867 15.5486C4.98348 15.6248 4.89066 15.7322 4.96588 15.8018C4.98865 15.8753 5.02799 15.9432 5.05766 16.0142C5.08423 16.0757 5.12391 16.1415 5.19189 16.1628C5.20121 16.1656 5.20983 16.1669 5.21811 16.1669C5.28471 16.1669 5.3168 16.0811 5.27332 16.0362C5.27574 16.0194 5.27194 16.0015 5.26021 15.9844C5.26228 15.8794 5.26849 15.7744 5.27884 15.6701C5.29644 15.5287 5.34026 15.3931 5.37512 15.2555C5.40548 15.1269 5.42135 14.9951 5.43999 14.864C5.44827 14.8047 5.46138 14.7463 5.47518 14.688C5.47656 14.69 5.47863 14.6918 5.48001 14.6938C5.51728 14.7655 5.54178 14.8445 5.56524 14.9213C5.57939 14.979 5.58526 15.0421 5.61596 15.0936C5.61251 15.1372 5.60837 15.1801 5.60216 15.2226C5.58077 15.3341 5.56007 15.4683 5.55006 15.586C5.52073 15.7277 5.50313 15.8708 5.50693 16.0156C5.48898 16.1831 5.42308 16.3807 5.56352 16.5152C5.59975 16.5561 5.63391 16.5979 5.67324 16.636C5.715 16.684 5.75399 16.7383 5.80299 16.7805C5.80195 16.8059 5.81023 16.8292 5.83715 16.8464C5.84991 16.8546 5.86406 16.8587 5.87855 16.8587C5.89857 16.8587 5.91823 16.8512 5.93376 16.8378C5.99622 16.8371 6.03728 16.7565 6.06005 16.7002C6.08731 16.6449 6.12251 16.5935 6.14977 16.5382C6.17496 16.4826 6.1998 16.427 6.22257 16.3711C6.22327 16.3711 6.22396 16.3711 6.2243 16.3711C6.28365 16.3711 6.32506 16.2908 6.28192 16.2448C6.27951 16.2369 6.27847 16.229 6.2764 16.2211C6.27985 16.2105 6.28365 16.1999 6.28676 16.1892C6.29849 16.1577 6.28469 16.123 6.25915 16.1035C6.25708 16.0832 6.25467 16.063 6.25087 16.0427C6.22292 15.9315 6.21912 15.8183 6.20636 15.7051C6.17806 15.5589 6.16909 15.41 6.14701 15.2628C6.12803 15.0905 6.13907 14.9049 6.15011 14.7292C6.15184 14.7172 6.15356 14.7055 6.15563 14.6938C6.19704 14.7916 6.24121 14.8877 6.26433 14.9924C6.31988 15.1375 6.36888 15.2847 6.39614 15.4381C6.40373 15.5057 6.43099 15.5688 6.44376 15.6354C6.44997 15.6882 6.44962 15.7418 6.46239 15.7936C6.48689 15.8825 6.47102 15.9782 6.49689 16.0657C6.49897 16.0705 6.50173 16.0743 6.50449 16.0784C6.50173 16.0918 6.49966 16.1038 6.49759 16.1131C6.49172 16.1546 6.52519 16.1937 6.56625 16.1982C6.56936 16.1982 6.57212 16.1985 6.57522 16.1985C6.6256 16.1985 6.64354 16.1621 6.65424 16.1192C6.69634 16.0897 6.70738 16.0159 6.72429 15.9686C6.72981 15.9511 6.73774 15.9312 6.74534 15.9103C6.86162 15.8499 6.7167 15.5657 6.68806 15.4762C6.65355 15.3969 6.62146 15.3166 6.58937 15.2367C6.57833 15.1687 6.5666 15.1011 6.55003 15.0342C6.54003 14.9934 6.52726 14.9536 6.51587 14.9131C6.52277 14.898 6.52484 14.8798 6.51898 14.8592C6.50966 14.8328 6.50276 14.8053 6.49793 14.7772C6.53796 14.7498 6.57177 14.7148 6.61628 14.6931C6.72912 14.6355 6.84264 14.5778 6.95237 14.5144C6.96997 14.5023 6.9924 14.489 7.01379 14.4735C7.03208 14.4746 7.05002 14.4763 7.06831 14.4783C7.07728 14.4804 7.08694 14.4814 7.09626 14.4814C7.11179 14.4934 7.12662 14.5065 7.14077 14.5199C7.19494 14.6056 7.25153 14.69 7.31123 14.7721C7.32814 14.7999 7.34435 14.8283 7.35885 14.8575C7.38507 14.9203 7.42613 14.9745 7.45926 15.0332C7.49756 15.1385 7.55553 15.2343 7.6097 15.3317C7.68907 15.4412 7.83157 15.481 7.95545 15.5187C7.97926 15.5253 8.00824 15.5311 8.03654 15.5311C8.07346 15.5311 8.109 15.5205 8.12867 15.4868C8.14972 15.4501 8.13661 15.4024 8.09968 15.3815C8.09692 15.3798 8.09451 15.3787 8.09175 15.3774C8.08761 15.3551 8.07311 15.3345 8.04517 15.3225C7.96477 15.2518 7.89472 15.1687 7.81881 15.0932C7.78016 15.0562 7.73979 15.0219 7.70011 14.9862C7.69597 14.9731 7.68803 14.9604 7.67457 14.9498C7.58693 14.8321 7.49549 14.7168 7.41406 14.595C7.34539 14.4855 7.29122 14.3689 7.24222 14.2498C7.31744 14.281 7.38887 14.3205 7.45029 14.3761C7.66284 14.5706 7.854 14.7882 8.03826 15.0095C8.06897 15.0548 8.0814 15.1107 8.12211 15.1499C8.16076 15.1866 8.19734 15.2247 8.23288 15.2638C8.24599 15.2864 8.26635 15.3053 8.28877 15.3225C8.35296 15.3839 8.39885 15.4793 8.48684 15.5026C8.48925 15.5026 8.49167 15.503 8.49408 15.503C8.50996 15.503 8.52445 15.4971 8.53687 15.4882C8.56172 15.4971 8.5938 15.503 8.62555 15.503C8.63038 15.503 8.63487 15.503 8.63935 15.5026C8.69422 15.5225 8.75253 15.5225 8.8105 15.5225C8.82016 15.5225 8.82982 15.5225 8.83949 15.5225C8.8488 15.5256 8.85812 15.5273 8.86709 15.5273C8.88503 15.5273 8.90125 15.5215 8.91505 15.5119C8.92023 15.5126 8.92541 15.5132 8.93058 15.5139C8.93645 15.515 8.94197 15.5156 8.94749 15.5156C8.94783 15.5156 8.94818 15.5156 8.94852 15.5156C8.95784 15.5191 8.96785 15.5218 8.97785 15.5218C8.98889 15.5218 8.99994 15.5194 9.00994 15.515C9.08275 15.4752 9.05549 15.3784 9.05169 15.3104C9.04031 15.214 9.01236 15.1179 8.96819 15.0304C8.96578 15.0037 8.96233 14.9773 8.95508 14.9508C8.94542 14.8973 8.93472 14.8218 8.88365 14.8053C8.88158 14.8036 8.87951 14.8016 8.87744 14.7999C8.74218 14.6715 8.58242 14.5754 8.43163 14.4663C8.25772 14.3455 8.08933 14.1922 7.92992 14.0497C7.89334 14.0195 7.85918 13.988 7.82536 13.9557C7.83226 13.9152 7.81708 13.8675 7.82122 13.8264C8.07933 13.9221 8.315 14.0611 8.52134 14.2453C8.56586 14.2947 8.62659 14.3225 8.67834 14.3623C8.73217 14.4248 8.79221 14.4804 8.86329 14.5236C8.89021 14.5432 8.91126 14.5734 8.94749 14.5734C8.94783 14.5734 8.94852 14.5734 8.94887 14.5734C8.99545 14.5734 9.02927 14.5349 9.0272 14.4921C9.03513 14.4852 9.04238 14.477 9.04686 14.4663C9.07309 14.4087 8.98786 14.2817 8.90712 14.1856C8.90643 14.1469 8.8733 14.1187 8.83638 14.1053C8.835 14.1046 8.83327 14.1036 8.83155 14.1029C8.82016 14.0916 8.80981 14.082 8.80153 14.0755C8.78531 14.0607 8.76357 14.0559 8.74287 14.0587C8.73666 14.0556 8.73114 14.0525 8.72493 14.0497C8.71768 14.0415 8.70871 14.0343 8.69836 14.0295C8.54998 13.9571 8.39229 13.8994 8.25185 13.8123C8.18388 13.7601 8.11728 13.7056 8.05034 13.6514C8.05103 13.6483 8.05207 13.6455 8.05241 13.6424C8.07104 13.5814 8.06345 13.5186 8.05724 13.4568C8.0569 13.4328 8.06035 13.4091 8.06449 13.3854C8.11659 13.2849 8.16041 13.1802 8.18595 13.0687C8.40747 13.0756 8.62797 13.1068 8.84294 13.1603C8.93783 13.2025 9.03479 13.2396 9.13416 13.2694C9.14279 13.2718 9.15073 13.2729 9.15866 13.2729C9.16556 13.2729 9.17212 13.2715 9.17833 13.2698C9.19317 13.2808 9.21111 13.2852 9.23078 13.2852C9.25045 13.2852 9.27322 13.2804 9.29531 13.2742C9.29669 13.2742 9.29772 13.2746 9.2991 13.2746C9.30186 13.2746 9.30497 13.2749 9.30773 13.2749C9.33326 13.2749 9.35396 13.2646 9.3688 13.2492C9.38502 13.2434 9.40055 13.2382 9.414 13.2351C9.46818 13.2166 9.52132 13.1957 9.57377 13.1723C9.59654 13.1648 9.61724 13.1487 9.62621 13.1277C9.64278 13.0889 9.62725 13.0433 9.58791 13.0255C9.56894 13.0162 9.54892 13.0172 9.5296 13.0234C9.414 12.964 9.28219 12.9647 9.15142 12.9658C9.08965 12.9664 9.02823 12.9671 8.96888 12.9613C8.884 12.9517 8.7998 12.9397 8.71561 12.9266C8.70802 12.9229 8.70077 12.9191 8.69353 12.9157C8.69249 12.9157 8.69111 12.9157 8.69008 12.9153C8.68387 12.9143 8.67765 12.9136 8.67179 12.9122C8.66247 12.9119 8.65315 12.9115 8.64349 12.9105C8.62383 12.9085 8.60416 12.9064 8.58449 12.9033C8.55481 12.8988 8.52548 12.892 8.49581 12.8862C8.49477 12.8875 8.49408 12.8892 8.4927 12.891C8.46268 12.8862 8.43266 12.8813 8.40264 12.8765C8.35813 12.8638 8.31431 12.8477 8.27187 12.8288C8.24771 12.7969 8.22667 12.7623 8.20907 12.7259C8.19492 12.706 8.18802 12.6782 8.18215 12.6487C8.2346 12.6521 8.28739 12.6562 8.33984 12.6566C8.48373 12.6604 8.62555 12.6703 8.76564 12.7026C8.89159 12.7173 9.01891 12.7221 9.14452 12.7393C9.26736 12.7571 9.38985 12.7908 9.51476 12.7986C9.52339 12.8 9.53236 12.8007 9.54133 12.8007C9.55306 12.8007 9.56514 12.7993 9.57653 12.7966C9.64588 12.8148 9.71627 12.8278 9.78943 12.8282C9.81254 12.8292 9.83636 12.8319 9.86016 12.8319C9.87362 12.8319 9.88708 12.8312 9.90053 12.8288C9.94091 12.822 9.96299 12.7832 9.96058 12.7461C10.0047 12.7156 10.0465 12.6758 10.0748 12.6535C10.1393 12.5952 10.2052 12.5385 10.2677 12.4782C10.2849 12.4607 10.2942 12.4397 10.2946 12.4167C10.3011 12.4064 10.3056 12.3951 10.3063 12.3824C10.3118 12.3333 10.2722 12.3038 10.2314 12.2874C10.1435 12.2311 10.0468 12.1916 9.96092 12.1326C9.90571 12.1106 9.86051 12.0684 9.8084 12.042C9.79564 12.0163 9.7701 11.9974 9.73629 11.9998C9.63898 12.0159 9.53788 12.0122 9.44437 12.0506C9.33326 12.054 9.22319 12.0691 9.11208 12.0801C8.98441 12.1041 8.85467 12.1069 8.72527 12.11C8.64625 12.1172 8.55999 12.1343 8.4758 12.1319C8.41645 12.134 8.35572 12.1292 8.29499 12.122C8.29947 12.0904 8.30499 12.0588 8.31465 12.0297C8.34398 12.0159 8.37366 12.0039 8.40402 11.993C8.46855 11.9758 8.53307 11.9586 8.59795 11.9422C8.70284 11.923 8.81016 11.914 8.91471 11.9092C8.97268 11.9044 9.04065 11.9041 9.08793 11.8667C9.09448 11.8608 9.09897 11.8547 9.10311 11.8485C9.23665 11.8409 9.37087 11.8385 9.50234 11.8107C9.54409 11.8035 9.57273 11.7627 9.56514 11.7212C9.56134 11.7003 9.54927 11.6828 9.5327 11.6714C9.51511 11.6313 9.46576 11.6165 9.42884 11.5966C9.38951 11.576 9.34844 11.5692 9.30635 11.5695C9.28771 11.5517 9.2608 11.5424 9.23147 11.5527C9.21491 11.5527 9.19869 11.5544 9.18282 11.5565C9.18178 11.5558 9.18075 11.5548 9.17971 11.5544C9.15176 11.5397 9.12071 11.5448 9.09793 11.5613C8.9782 11.6179 8.85467 11.6673 8.72389 11.6924C8.64349 11.715 8.5631 11.7363 8.48028 11.7497C8.43335 11.7606 8.38505 11.7723 8.33708 11.7775C8.32294 11.7531 8.29568 11.7377 8.26704 11.7387C8.25289 11.7356 8.24047 11.7291 8.22839 11.7215C8.20734 11.7044 8.18836 11.6855 8.17042 11.6656C8.18491 11.6364 8.18319 11.5994 8.15075 11.5743C8.07691 11.4789 8.0255 11.3657 7.98064 11.2531C8.02998 11.2216 8.07518 11.19 8.10382 11.177C8.32639 11.051 8.52928 10.8922 8.7722 10.8036C8.94128 10.725 8.98303 10.5655 9.03134 10.4028C9.06239 10.3514 9.05031 10.2728 8.98096 10.2639C8.94162 10.2591 8.90091 10.2868 8.89504 10.3263C8.89297 10.3308 8.89159 10.3352 8.88952 10.3397C8.84811 10.3575 8.80808 10.4004 8.77703 10.4262C8.74632 10.4564 8.71526 10.4848 8.68317 10.513C8.65419 10.5174 8.62728 10.5394 8.61002 10.5658C8.47131 10.6756 8.32397 10.7745 8.17387 10.8685C8.06311 10.9525 7.94303 11.0188 7.81225 11.0675C7.79948 11.0696 7.78706 11.0685 7.77464 11.0665C7.78637 11.028 7.79638 10.9882 7.8126 10.9622C7.9137 10.7844 8.09692 10.6746 8.24806 10.5425C8.34053 10.4941 8.41369 10.4176 8.50685 10.3695C8.61002 10.3174 8.69629 10.2419 8.79014 10.1764C8.87399 10.1077 8.99097 10.0593 9.02789 9.95023C9.07516 9.86135 9.06688 9.75875 9.07585 9.66027C9.08896 9.61704 9.09241 9.57037 9.08551 9.52576C9.08551 9.51066 9.0862 9.49556 9.08758 9.48047C9.09241 9.45953 9.09655 9.42865 9.09069 9.40223C9.08758 9.34698 9.03065 9.29448 8.95957 9.33909C8.78807 9.3439 8.6221 9.34527 8.48132 9.4012C8.46027 9.39948 8.43956 9.3988 8.41886 9.40189C8.38125 9.40909 8.35296 9.4386 8.35192 9.47635C8.30016 9.51856 8.25392 9.5738 8.21562 9.64758C8.1511 9.74743 8.05 9.81812 7.99513 9.92483C7.90231 10.0638 7.76601 10.1654 7.65422 10.2875C7.58072 10.3692 7.50895 10.4595 7.42061 10.5267C7.41682 10.5236 7.41302 10.5209 7.40922 10.5178C7.39508 10.5068 7.37679 10.4969 7.35712 10.4896C7.35505 10.4759 7.35298 10.4622 7.3516 10.4492C7.36471 10.4269 7.3761 10.4039 7.38645 10.386C7.44304 10.2951 7.48272 10.1945 7.54656 10.1081C7.61695 10.0134 7.68078 9.88743 7.7598 9.79444C7.86677 9.68978 7.96304 9.57552 8.06863 9.46949C8.11866 9.43105 8.13488 9.35591 8.07346 9.31988C8.05655 9.30958 8.03688 9.30752 8.0186 9.3113C8.01273 9.30649 8.00652 9.30203 7.99893 9.29894C7.96753 9.28556 7.9275 9.29586 7.9068 9.32296C7.87643 9.33669 7.84572 9.35076 7.81467 9.36277C7.75083 9.37341 7.64697 9.40532 7.66008 9.48012C7.648 9.49351 7.63972 9.51032 7.63627 9.52885C7.63558 9.53022 7.63489 9.53159 7.6342 9.53297C7.62627 9.54189 7.62005 9.55321 7.61729 9.56762C7.61108 9.57998 7.60522 9.59199 7.59935 9.60434C7.53379 9.69905 7.49204 9.80679 7.43303 9.90528C7.32676 10.0511 7.2398 10.2096 7.14215 10.3613C7.11627 10.3428 7.0897 10.3256 7.06037 10.3129C7.01517 10.2896 6.96134 10.3181 6.92477 10.2772C6.86956 10.2464 6.81366 10.2165 6.75638 10.1894C6.7167 10.174 6.67391 10.1788 6.63388 10.1643C6.59213 10.1396 6.54727 10.1324 6.50069 10.1317C6.50932 9.96395 6.53934 9.79753 6.57177 9.63282C6.62112 9.47978 6.68564 9.32914 6.7267 9.17335C6.74879 9.1483 6.75983 9.10816 6.76466 9.07316C6.77432 9.01963 6.75431 8.96644 6.73705 8.91634C6.71566 8.85526 6.68081 8.80001 6.64976 8.7434C6.63078 8.70531 6.61042 8.66001 6.56211 8.65555C6.4931 8.64251 6.44859 8.72246 6.48344 8.77394C6.48068 8.80448 6.48275 8.83742 6.48344 8.86384C6.48447 8.88443 6.48482 8.90502 6.48516 8.92526C6.451 8.98222 6.45825 9.05428 6.451 9.11845C6.43755 9.22551 6.41063 9.32983 6.39131 9.43586C6.38717 9.48801 6.38648 9.54052 6.38406 9.59267C6.35473 9.72272 6.32747 9.85312 6.3047 9.9842C6.29331 10.0144 6.28158 10.0446 6.27019 10.0751C6.26881 10.083 6.2664 10.0913 6.26364 10.0998C6.24224 10.0861 6.21981 10.0738 6.19739 10.0614C6.186 10.0171 6.17634 9.97253 6.16806 9.92724C6.15115 9.75052 6.18531 9.57483 6.20118 9.39948C6.21774 9.21693 6.21843 9.02718 6.21671 8.84325C6.20739 8.72418 6.25397 8.61026 6.24673 8.49256C6.26295 8.31927 6.09835 8.23589 5.99932 8.12128C5.98966 8.10893 5.98104 8.09863 5.97241 8.08834C5.96689 8.05849 5.94791 8.03858 5.92445 8.03C5.91375 8.02005 5.90064 8.0125 5.88545 8.00976C5.8437 8.00221 5.80299 8.03069 5.79539 8.07221C5.79539 8.0729 5.79539 8.07324 5.79539 8.07393C5.75054 8.10858 5.71017 8.16006 5.68291 8.19128C5.62563 8.24207 5.6101 8.3179 5.5749 8.38275C5.54523 8.44315 5.47208 8.4754 5.46138 8.54472C5.46966 8.63942 5.50106 8.7307 5.49554 8.82712C5.53384 9.00487 5.52763 9.18948 5.53626 9.37066C5.56248 9.56076 5.59078 9.74983 5.57732 9.94234C5.5749 9.9866 5.57559 10.0319 5.568 10.0762C5.53591 10.0316 5.509 9.98248 5.48588 9.93101C5.44482 9.83871 5.41859 9.7416 5.3934 9.64414C5.37097 9.56934 5.33992 9.49728 5.32888 9.41973C5.30852 9.2413 5.27332 9.06526 5.25849 8.88649C5.26539 8.81031 5.25607 8.67442 5.14531 8.70634C5.13461 8.71045 5.12529 8.71732 5.11736 8.72555C5.07526 8.73242 5.03834 8.77256 5.03938 8.81614C5.02764 8.84668 5.0166 8.87688 5.00901 8.90879C4.98762 9.01173 5.0204 9.11468 5.0449 9.21419C5.07216 9.35453 5.11598 9.49042 5.14393 9.63076C5.16049 9.73782 5.18395 9.84454 5.22536 9.94508C5.23433 9.9715 5.23985 9.99792 5.24261 10.0247C5.23088 10.0192 5.21742 10.0165 5.2019 10.0178C5.18119 10.0199 5.16291 10.0302 5.15014 10.0453C5.12046 10.0576 5.09113 10.0703 5.06318 10.0875C4.95415 10.1664 4.81336 10.2141 4.70502 10.2958C4.61116 10.2299 4.52593 10.1551 4.4759 10.0477C4.46244 10.0233 4.43725 10.0092 4.41103 10.0079C4.31441 9.7917 4.19744 9.58478 4.07529 9.38233C4.05838 9.35419 4.03561 9.33978 4.01249 9.33532C4.008 9.33154 4.00317 9.32777 3.9973 9.32468C3.91484 9.29517 3.83168 9.2612 3.74714 9.24061C3.69952 9.23443 3.66708 9.27286 3.66329 9.31301C3.64155 9.34664 3.64293 9.39537 3.68917 9.42145C3.6971 9.42591 3.7047 9.43071 3.71263 9.43551C3.85273 9.6462 3.99282 9.85415 4.13602 10.0648C4.20813 10.1681 4.29405 10.2608 4.37514 10.3575C4.41068 10.4162 4.44691 10.4745 4.48383 10.5325C4.34409 10.4656 4.24298 10.3359 4.12981 10.233L4.12739 10.2343ZM3.54666 10.3459C3.54908 10.3411 3.55115 10.3359 3.55253 10.3308C3.56943 10.349 3.58565 10.3678 3.60152 10.3874C3.58324 10.3737 3.56495 10.3599 3.54666 10.3459ZM3.57806 10.0501C3.57806 10.047 3.57737 10.0439 3.57702 10.0405C3.59186 10.0583 3.6067 10.0765 3.62119 10.0943C3.60325 10.0782 3.58807 10.0635 3.57772 10.0501H3.57806ZM3.70435 12.6082C3.70297 12.6134 3.70159 12.6188 3.70056 12.624C3.69883 12.6188 3.69676 12.614 3.69434 12.6092C3.69779 12.6092 3.7009 12.6085 3.70435 12.6082ZM3.63948 11.8595C3.63948 11.8595 3.6381 11.8595 3.63741 11.8591C3.63879 11.8584 3.64017 11.8581 3.64155 11.8574C3.64086 11.8581 3.64017 11.8588 3.63948 11.8595ZM3.67537 12.9898C3.68744 12.987 3.69883 12.9819 3.70849 12.9743C3.7116 12.9932 3.71436 13.0124 3.71781 13.0313C3.7047 13.0162 3.69055 13.0025 3.67537 12.9898ZM3.14018 14.8246C3.14018 14.8246 3.1388 14.8222 3.13846 14.8211C3.14122 14.8191 3.14398 14.817 3.14674 14.815C3.14467 14.818 3.1426 14.8215 3.14018 14.8246ZM9.81841 12.2328C9.82048 12.2342 9.8229 12.2356 9.82497 12.2369C9.82255 12.2373 9.81979 12.2376 9.81738 12.238C9.81772 12.2362 9.81807 12.2345 9.81841 12.2328ZM8.8281 12.263C8.79325 12.2664 8.7584 12.2699 8.72355 12.2733C8.72217 12.2719 8.72044 12.2712 8.71872 12.2699C8.75495 12.2668 8.79152 12.264 8.8281 12.263ZM8.92678 9.534C8.92782 9.53743 8.92816 9.54052 8.92885 9.54395C8.92471 9.5412 8.92023 9.53846 8.91574 9.5364C8.91954 9.53571 8.92299 9.53503 8.92678 9.53434V9.534ZM7.79776 9.52816C7.79776 9.52816 7.79465 9.53125 7.79327 9.53297C7.79258 9.53365 7.79189 9.53434 7.7912 9.53537C7.7912 9.53365 7.7912 9.53194 7.7912 9.53022C7.79327 9.52953 7.79569 9.52885 7.79776 9.52816ZM7.34504 14.1163C7.35091 14.1232 7.35712 14.13 7.36368 14.1366C7.35298 14.1311 7.34194 14.1256 7.3309 14.1204C7.33573 14.1191 7.34056 14.1177 7.34504 14.1163ZM6.98619 13.8099C6.98964 13.8137 6.99343 13.8174 6.99757 13.8205C6.99205 13.8216 6.98653 13.8222 6.98101 13.8233C6.98274 13.8188 6.98446 13.8144 6.98619 13.8102V13.8099ZM6.23051 14.4183C6.23051 14.4183 6.22913 14.4193 6.2281 14.42H6.22706C6.22154 14.4203 6.21602 14.4207 6.2105 14.421C6.2174 14.42 6.22396 14.4193 6.23086 14.4183H6.23051ZM5.72776 14.2913C5.73639 14.2944 5.74916 14.2982 5.76469 14.3023C5.74881 14.3023 5.73259 14.3013 5.71603 14.2992C5.72017 14.2968 5.72431 14.2944 5.72776 14.2913ZM5.68015 16.4027C5.68153 16.4095 5.68291 16.4167 5.68394 16.4243C5.67669 16.4161 5.66945 16.4075 5.66289 16.3986C5.66841 16.4003 5.67393 16.4016 5.68015 16.4027ZM5.6484 14.6671C5.64737 14.6739 5.64633 14.6808 5.6453 14.6876C5.64046 14.6767 5.63563 14.6664 5.63011 14.6557C5.63632 14.6595 5.64219 14.6633 5.6484 14.6671ZM5.22364 12.6116C5.22364 12.6209 5.22364 12.6302 5.22329 12.6394C5.22226 12.6264 5.22157 12.613 5.22018 12.6C5.22157 12.6037 5.2226 12.6079 5.22364 12.6116Z" fill="#FFD300"/>
<path d="M0.849742 3.30814C0.807645 3.28549 0.766583 3.32015 0.723796 3.33593C0.701367 3.34108 0.677213 3.34863 0.6572 3.35995C0.600266 3.3651 0.566105 3.44162 0.606477 3.48623C0.638222 3.52432 0.692396 3.51437 0.736563 3.52192C0.830419 3.54045 0.923929 3.55898 1.01675 3.58334C1.10025 3.59535 1.17824 3.61868 1.25242 3.65814C1.28865 3.66947 1.32592 3.67839 1.3625 3.68834C1.37733 3.76006 1.39183 3.83143 1.40459 3.9028C1.45773 4.09153 1.39735 4.28163 1.41598 4.47173C1.41667 4.48306 1.41943 4.49301 1.42323 4.50193C1.42599 4.52869 1.43565 4.55443 1.45083 4.57227C1.46601 4.5908 1.48879 4.60041 1.51122 4.60041C1.53502 4.60041 1.55883 4.59012 1.57367 4.56919C1.61818 4.49747 1.66442 4.42575 1.70203 4.35026C1.73136 4.25899 1.79313 4.18727 1.84282 4.10697C1.86835 4.05241 1.89492 3.9982 1.92701 3.94707C1.94012 3.91756 1.95427 3.88873 1.96876 3.85991C1.97808 3.86197 1.98739 3.86403 1.99671 3.86609C2.12231 3.91756 2.25516 3.93849 2.38731 3.96457C2.5281 3.9982 2.66923 4.02839 2.81001 4.06099C2.81588 4.06236 2.82209 4.06305 2.82761 4.06305C2.88868 4.06305 2.93043 3.98447 2.88696 3.93437C2.88627 3.91962 2.8804 3.90452 2.86867 3.89011C2.69373 3.67736 2.49428 3.48794 2.29346 3.2999C2.32244 3.24809 2.35039 3.19559 2.37558 3.14137C2.46288 3.01441 2.58469 2.90632 2.65887 2.76597C2.69752 2.69254 2.77033 2.63386 2.79138 2.55288C2.79552 2.50484 2.76239 2.47499 2.72513 2.46916C2.69407 2.44136 2.6499 2.44514 2.61919 2.47087C2.46254 2.52783 2.3083 2.59269 2.16165 2.67264C2.08953 2.71622 2.02431 2.77044 1.94806 2.80715C1.92252 2.82088 1.8963 2.8322 1.86938 2.84284C1.78761 2.74882 1.71963 2.6445 1.63647 2.55117C1.56815 2.4719 1.49293 2.40053 1.44324 2.30616C1.41909 2.25263 1.38182 2.18229 1.31143 2.20254C1.30487 2.20425 1.29935 2.207 1.29383 2.21043C1.25346 2.20905 1.21102 2.23719 1.20757 2.28935C1.20446 2.39435 1.25173 2.49215 1.27416 2.59337C1.29003 2.67538 1.29176 2.75911 1.30246 2.84181C1.31005 2.92245 1.28934 3.00171 1.29141 3.08235C1.29279 3.10019 1.29314 3.1177 1.29348 3.13554C1.2576 3.1527 1.22171 3.16985 1.18514 3.18632C1.07541 3.23368 0.961195 3.26833 0.849052 3.30985L0.849742 3.30814ZM1.58126 4.18555C1.58816 4.18727 1.59541 4.18898 1.60335 4.19001C1.59403 4.21026 1.58471 4.23085 1.5754 4.25144C1.57747 4.22948 1.57954 4.20751 1.58126 4.18555ZM2.6323 3.85099C2.63679 3.85614 2.64162 3.86094 2.64611 3.86609C2.63852 3.86403 2.63127 3.86197 2.62368 3.85991C2.62678 3.85717 2.62954 3.85408 2.6323 3.85099ZM2.51499 2.67333C2.52361 2.66955 2.53258 2.66646 2.54156 2.66303C2.53672 2.67058 2.53189 2.67813 2.52706 2.68602C2.52361 2.68156 2.51947 2.6771 2.51499 2.67333ZM2.26068 2.82053C2.2555 2.8147 2.24895 2.8099 2.24205 2.80612C2.26516 2.79205 2.28932 2.77901 2.31347 2.767C2.29518 2.78416 2.2769 2.80132 2.26033 2.82088L2.26068 2.82053ZM1.00053 3.42C1.00605 3.41794 1.01192 3.41623 1.01744 3.41417C1.01985 3.41829 1.02331 3.4224 1.02676 3.42618C1.01813 3.42412 1.0095 3.42206 1.00053 3.42ZM1.45739 2.58239C1.45635 2.58445 1.45497 2.58617 1.45394 2.58857C1.44565 2.59132 1.43841 2.59543 1.43254 2.60024C1.42875 2.57999 1.42461 2.5594 1.41978 2.53916C1.43185 2.55391 1.44462 2.56832 1.45739 2.58239ZM1.3656 2.26945C1.36595 2.27151 1.36664 2.27322 1.36698 2.27528C1.36664 2.27322 1.36629 2.27116 1.3656 2.26945C1.3656 2.26842 1.36526 2.26773 1.36491 2.2667C1.36491 2.26773 1.36526 2.26842 1.3656 2.26945Z" fill="#FFD300"/>
<path d="M15.0238 11.428C14.9072 11.5464 14.8295 11.6964 14.737 11.8336C14.6673 11.8055 14.5973 11.7773 14.5276 11.7492C14.5241 11.7478 14.521 11.7475 14.5179 11.7468C14.5034 11.7393 14.4893 11.7317 14.4748 11.7242C14.4434 11.7091 14.4106 11.6991 14.3775 11.6905C14.323 11.6696 14.2685 11.6487 14.2139 11.6277C14.2029 11.6161 14.1874 11.6071 14.1667 11.6041C14.1553 11.6017 14.1442 11.5986 14.1332 11.5958C14.0914 11.5794 14.0493 11.5632 14.0079 11.5464C13.9962 11.5419 13.9848 11.5406 13.9745 11.5409C13.9237 11.5207 13.8734 11.4997 13.8223 11.4819C13.783 11.4668 13.7374 11.4867 13.7219 11.5258C13.7067 11.5649 13.7267 11.6106 13.766 11.6257C13.7847 11.6322 13.803 11.6391 13.8216 11.6463C13.863 11.7259 13.9417 11.7753 14.0103 11.8312C14.1639 11.9712 14.3078 12.1222 14.45 12.2739C14.4482 12.2773 14.4468 12.2804 14.4455 12.2838C14.4227 12.3171 14.4206 12.3583 14.4023 12.3929C14.3468 12.4832 14.2712 12.5566 14.2032 12.6369C14.1415 12.7117 14.079 12.7865 14.0079 12.8528C13.9855 12.8747 13.9648 12.8977 13.9431 12.92C13.9186 12.933 13.9017 12.9588 13.9017 12.9879C13.8992 13.024 13.9237 13.0583 13.9586 13.0679C13.9655 13.0696 13.9724 13.0706 13.9786 13.0706C14.0324 13.0706 14.0652 13.0123 14.1028 12.9759C14.1208 12.9701 14.1377 12.9598 14.1504 12.9454C14.2567 12.9001 14.3685 12.873 14.4769 12.8342C14.5797 12.8064 14.6818 12.7752 14.7836 12.7429C14.7991 12.7574 14.8147 12.7718 14.8292 12.7872C14.8764 12.8967 14.9372 13 15.0048 13.0984C15.0614 13.1859 15.1163 13.2741 15.1742 13.3609C15.2077 13.408 15.2353 13.469 15.2933 13.491C15.3022 13.4941 15.3116 13.4955 15.3209 13.4955C15.3519 13.4955 15.3816 13.4786 15.394 13.4471C15.3947 13.4457 15.3947 13.4443 15.3951 13.4426C15.4006 13.4351 15.4047 13.4261 15.4068 13.4158C15.4171 13.3795 15.4182 13.3359 15.3871 13.3108C15.3768 13.268 15.3688 13.2251 15.3619 13.1822C15.3768 13.1609 15.3809 13.1321 15.364 13.1019C15.3574 13.0902 15.3523 13.0782 15.3478 13.0662C15.3319 12.8984 15.3347 12.7289 15.3343 12.5597C15.4089 12.535 15.4837 12.5103 15.559 12.487C15.7205 12.431 15.8823 12.3549 16.0569 12.338C16.1086 12.3264 16.1797 12.3325 16.2042 12.2752C16.2197 12.2361 16.2028 12.1908 16.1628 12.174C16.1069 12.1586 16.0489 12.1898 15.9917 12.1912C15.9758 12.1925 15.9599 12.1949 15.944 12.1977C15.9271 12.1795 15.9023 12.1699 15.8778 12.1726C15.8347 12.1596 15.7936 12.1421 15.7501 12.1304C15.6193 12.1026 15.4965 12.0481 15.3692 12.0069C15.364 11.9101 15.3571 11.8134 15.3492 11.7166C15.3512 11.7101 15.3526 11.7036 15.3526 11.6967C15.353 11.568 15.353 11.4397 15.3537 11.311C15.3654 11.298 15.3726 11.2812 15.373 11.263C15.373 11.2613 15.373 11.2592 15.373 11.2575C15.3871 11.2352 15.3868 11.2064 15.3754 11.183C15.3802 11.1103 15.3823 11.0324 15.2995 11.0235C15.2584 11.0224 15.2194 11.0564 15.2198 11.0986C15.2198 11.101 15.2201 11.1034 15.2205 11.1058C15.187 11.1398 15.1608 11.195 15.1345 11.2269C15.0928 11.2911 15.0579 11.3591 15.0245 11.4277L15.0238 11.428ZM14.5331 12.1249C14.531 12.1263 14.529 12.1277 14.5272 12.1294C14.5238 12.1256 14.52 12.1219 14.5165 12.1177C14.5224 12.1198 14.5279 12.1222 14.5331 12.1246V12.1249ZM15.6856 12.277C15.6856 12.277 15.6856 12.277 15.6849 12.2766C15.6849 12.2766 15.6853 12.2759 15.6856 12.2756C15.6863 12.2756 15.6873 12.2759 15.688 12.2763C15.6873 12.2763 15.6863 12.277 15.6856 12.2773V12.277Z" fill="#FFD300"/>
<path d="M2.81558 20.6723C2.81558 20.6723 2.81799 20.6695 2.81903 20.6678C2.84801 20.6531 2.8663 20.6205 2.86112 20.5875C2.83283 20.4732 2.69205 20.5439 2.61165 20.5508C2.51227 20.5728 2.41048 20.5851 2.31179 20.6108C2.18826 20.6503 2.0599 20.6699 1.93327 20.6977C1.92706 20.6839 1.92084 20.6706 1.91463 20.6568C1.82595 20.4901 1.74073 20.3219 1.65653 20.1531C1.63617 20.0968 1.60615 20.0275 1.53197 20.0543C1.52472 20.057 1.51816 20.0615 1.5123 20.0663C1.48159 20.0694 1.45226 20.0893 1.44501 20.1294C1.42948 20.2845 1.4319 20.441 1.42431 20.5964C1.41465 20.6853 1.40257 20.7742 1.40499 20.8637C1.3722 20.8754 1.33908 20.8871 1.30595 20.897C1.1945 20.9375 1.08132 20.9749 0.961587 20.9804C0.877738 20.9876 0.795615 21.0027 0.713836 21.0219C0.638614 21.025 0.559596 21.0861 0.613425 21.1626C0.631023 21.1829 0.651036 21.1897 0.672775 21.1897C0.687957 21.1897 0.70383 21.1863 0.719702 21.1818C0.721428 21.1825 0.722463 21.1839 0.724188 21.1846C0.883259 21.2467 1.04958 21.2886 1.20485 21.362C1.26489 21.3881 1.32838 21.4045 1.39049 21.4241C1.38911 21.5092 1.38704 21.5939 1.38152 21.679C1.35909 21.7617 1.36358 21.8458 1.3622 21.9302C1.34495 22.0798 1.28629 22.2264 1.29043 22.3777C1.29664 22.424 1.33114 22.4453 1.36599 22.4453C1.37704 22.4453 1.38773 22.4432 1.39774 22.4391C1.40084 22.4394 1.4036 22.4401 1.40671 22.4401C1.4074 22.4401 1.40809 22.4401 1.40878 22.4401C1.44191 22.4401 1.46917 22.4192 1.48055 22.3904C1.48055 22.3911 1.48055 22.3918 1.48021 22.3921C1.48021 22.3921 1.48021 22.3928 1.47986 22.3928C1.6203 22.1522 1.76039 21.911 1.93051 21.6897C1.93154 21.6883 1.93258 21.6866 1.93361 21.6852C2.00607 21.7137 2.08164 21.7394 2.14755 21.7744C2.2659 21.8362 2.40565 21.9065 2.52918 21.9697C2.52987 21.9697 2.53022 21.9704 2.53091 21.9707C2.5485 21.9982 2.56645 22.026 2.58335 22.0538C2.60061 22.0761 2.622 22.0853 2.64305 22.0853C2.68308 22.0853 2.72069 22.052 2.7231 22.0112C2.73483 21.9978 2.74242 21.9807 2.74277 21.9628C2.74381 21.9258 2.71931 21.8969 2.68618 21.887C2.67203 21.8767 2.6572 21.8671 2.64201 21.8578C2.52124 21.6718 2.39185 21.491 2.26659 21.3078C2.45879 21.1039 2.63339 20.8836 2.81592 20.6716L2.81558 20.6723ZM2.20103 21.4879C2.19862 21.4859 2.19586 21.4838 2.19344 21.4821C2.19413 21.4811 2.19447 21.4804 2.19516 21.4793C2.19724 21.4821 2.19896 21.4852 2.20103 21.4879Z" fill="#FFD300"/>
</svg>
