<svg width="30" height="30" viewBox="0 0 30 30" fill="none" xmlns="http://www.w3.org/2000/svg">
<path d="M29.2675 5L24.6338 0.36625L22.8662 2.13375L25 4.2675V7.5C25 8.16304 25.2634 8.79893 25.7322 9.26777C26.2011 9.73661 26.837 10 27.5 10V22.5C27.5 22.8315 27.3683 23.1495 27.1339 23.3839C26.8995 23.6183 26.5815 23.75 26.25 23.75C25.9185 23.75 25.6005 23.6183 25.3661 23.3839C25.1317 23.1495 25 22.8315 25 22.5V21.25C25 20.2554 24.6049 19.3016 23.9017 18.5983C23.1984 17.8951 22.2446 17.5 21.25 17.5H20V3.75C20 2.75544 19.6049 1.80161 18.9017 1.09835C18.1984 0.395088 17.2446 0 16.25 0L3.75 0C2.75544 0 1.80161 0.395088 1.09835 1.09835C0.395088 1.80161 0 2.75544 0 3.75L0 30H20V20H21.25C21.5815 20 21.8995 20.1317 22.1339 20.3661C22.3683 20.6005 22.5 20.9185 22.5 21.25V22.5C22.5 23.4946 22.8951 24.4484 23.5983 25.1517C24.3016 25.8549 25.2554 26.25 26.25 26.25C27.2446 26.25 28.1984 25.8549 28.9017 25.1517C29.6049 24.4484 30 23.4946 30 22.5V6.7675C29.9984 6.10481 29.7351 5.46958 29.2675 5ZM3.75 2.5H16.25C16.5815 2.5 16.8995 2.6317 17.1339 2.86612C17.3683 3.10054 17.5 3.41848 17.5 3.75V11.25H2.5V3.75C2.5 3.41848 2.6317 3.10054 2.86612 2.86612C3.10054 2.6317 3.41848 2.5 3.75 2.5ZM2.5 27.5V13.75H17.5V27.5H2.5Z" fill="#718096"/>
</svg>
