<svg width="20" height="17" viewBox="0 0 20 17" fill="none" xmlns="http://www.w3.org/2000/svg">
<path d="M14.3732 0.402679C13.4778 0.416265 12.602 0.660089 11.8341 1.10953C11.0662 1.55897 10.4336 2.19811 9.99992 2.9624C9.56629 2.19811 8.9336 1.55897 8.16574 1.10953C7.39788 0.660089 6.52205 0.416265 5.62669 0.402679C4.19937 0.463175 2.85462 1.07228 1.8862 2.09693C0.917793 3.12158 0.404446 4.47848 0.458317 5.87118C0.458317 9.39817 4.26383 13.2502 7.45549 15.8619C8.16811 16.446 9.0691 16.7663 9.99992 16.7663C10.9307 16.7663 11.8317 16.446 12.5444 15.8619C15.736 13.2502 19.5415 9.39817 19.5415 5.87118C19.5954 4.47848 19.0821 3.12158 18.1136 2.09693C17.1452 1.07228 15.8005 0.463175 14.3732 0.402679ZM11.5226 14.6751C11.0964 15.0252 10.5571 15.2172 9.99992 15.2172C9.44273 15.2172 8.90345 15.0252 8.47724 14.6751C4.39184 11.3312 2.04858 8.12296 2.04858 5.87118C1.99423 4.88973 2.33989 3.92713 3.01019 3.19332C3.68049 2.45951 4.62103 2.01403 5.62669 1.95403C6.63235 2.01403 7.57289 2.45951 8.24318 3.19332C8.91348 3.92713 9.25914 4.88973 9.20479 5.87118C9.20479 6.0769 9.28856 6.2742 9.43768 6.41967C9.58679 6.56513 9.78904 6.64686 9.99992 6.64686C10.2108 6.64686 10.4131 6.56513 10.5622 6.41967C10.7113 6.2742 10.7951 6.0769 10.7951 5.87118C10.7407 4.88973 11.0864 3.92713 11.7567 3.19332C12.427 2.45951 13.3675 2.01403 14.3732 1.95403C15.3788 2.01403 16.3194 2.45951 16.9897 3.19332C17.66 3.92713 18.0056 4.88973 17.9513 5.87118C17.9513 8.12296 15.608 11.3312 11.5226 14.672V14.6751Z" fill="#CBD5E0"/>
</svg>
