<svg width="24" height="28" viewBox="0 0 24 28" fill="none" xmlns="http://www.w3.org/2000/svg">
<rect width="24" height="28" fill="#F5F5F5"/>
<g clip-path="url(#clip0_0_1)">
<rect width="390" height="844" transform="translate(-73 -357)" fill="white"/>
<rect x="-96" y="-365" width="505" height="955" fill="#EDF2F7"/>
<rect x="-53" y="-126" width="340" height="492" rx="50" fill="white"/>
<rect x="-52.75" y="-125.75" width="339.5" height="491.5" rx="49.75" stroke="#718096" stroke-opacity="0.4" stroke-width="0.5"/>
<rect x="-20" y="-17" width="64" height="62" rx="20" fill="#EDF2F7"/>
<path d="M11.7301 7.00183C10.8072 7.00183 9.905 7.2755 9.13763 7.78824C8.37027 8.30097 7.77218 9.02974 7.419 9.88239C7.06583 10.735 6.97342 11.6733 7.15347 12.5784C7.33352 13.4836 7.77794 14.3151 8.43052 14.9676C9.08311 15.6202 9.91456 16.0647 10.8197 16.2447C11.7249 16.4247 12.6631 16.3323 13.5158 15.9792C14.3684 15.626 15.0972 15.0279 15.6099 14.2605C16.1227 13.4932 16.3963 12.591 16.3963 11.6681C16.3963 10.4305 15.9047 9.24364 15.0296 8.36855C14.1545 7.49345 12.9676 7.00183 11.7301 7.00183ZM11.7301 14.0012C11.2686 14.0012 10.8175 13.8644 10.4339 13.608C10.0502 13.3517 9.75113 12.9873 9.57454 12.5609C9.39795 12.1346 9.35175 11.6655 9.44177 11.2129C9.53179 10.7603 9.754 10.3446 10.0803 10.0183C10.4066 9.69203 10.8223 9.46982 11.2749 9.37979C11.7275 9.28977 12.1966 9.33597 12.6229 9.51256C13.0492 9.68915 13.4136 9.9882 13.67 10.3719C13.9264 10.7556 14.0632 11.2066 14.0632 11.6681C14.0632 12.2869 13.8174 12.8803 13.3798 13.3179C12.9423 13.7554 12.3489 14.0012 11.7301 14.0012Z" fill="#1992E3"/>
<path d="M11.7298 27.9999C10.7475 28.0049 9.77828 27.7746 8.90331 27.328C8.02833 26.8815 7.27307 26.2319 6.70075 25.4335C2.25497 19.3008 0 14.6906 0 11.7298C0 8.61888 1.23582 5.63535 3.43558 3.43559C5.63535 1.23582 8.61888 0 11.7298 0C14.8408 0 17.8243 1.23582 20.0241 3.43559C22.2238 5.63535 23.4596 8.61888 23.4596 11.7298C23.4596 14.6906 21.2047 19.3008 16.7589 25.4335C16.1866 26.2319 15.4313 26.8815 14.5563 27.328C13.6814 27.7746 12.7121 28.0049 11.7298 27.9999V27.9999ZM11.7298 2.54661C9.29452 2.54939 6.95975 3.51804 5.23773 5.24007C3.51571 6.96209 2.54706 9.29685 2.54428 11.7322C2.54428 14.077 4.75259 18.4131 8.76091 23.9414C9.10119 24.4101 9.54761 24.7916 10.0636 25.0547C10.5797 25.3177 11.1506 25.4548 11.7298 25.4548C12.309 25.4548 12.88 25.3177 13.396 25.0547C13.912 24.7916 14.3584 24.4101 14.6987 23.9414C18.7071 18.4131 20.9154 14.077 20.9154 11.7322C20.9126 9.29685 19.9439 6.96209 18.2219 5.24007C16.4999 3.51804 14.1651 2.54939 11.7298 2.54661V2.54661Z" fill="#1992E3"/>
</g>
<defs>
<clipPath id="clip0_0_1">
<rect width="390" height="844" fill="white" transform="translate(-73 -357)"/>
</clipPath>
</defs>
</svg>
