<svg width="6" height="7" viewBox="0 0 6 7" fill="none" xmlns="http://www.w3.org/2000/svg">
<rect width="6" height="7" fill="#F5F5F5"/>
<g clip-path="url(#clip0_0_1)">
<rect width="1440" height="1024" transform="translate(-386 -653)" fill="white"/>
<rect x="-6" y="-4" width="93" height="15" rx="7.5" fill="#E2E8F0"/>
<path d="M2.93228 1.75037C2.70156 1.75037 2.47601 1.81878 2.28417 1.94697C2.09233 2.07515 1.94281 2.25734 1.85452 2.47051C1.76622 2.68367 1.74312 2.91823 1.78813 3.14452C1.83314 3.37081 1.94425 3.57867 2.1074 3.74182C2.27054 3.90497 2.47841 4.01607 2.7047 4.06108C2.93099 4.1061 3.16555 4.08299 3.37871 3.9947C3.59187 3.9064 3.77406 3.75688 3.90225 3.56504C4.03043 3.3732 4.09885 3.14766 4.09885 2.91693C4.09885 2.60754 3.97594 2.31082 3.75717 2.09205C3.5384 1.87327 3.24168 1.75037 2.93228 1.75037ZM2.93228 3.50022C2.81692 3.50022 2.70415 3.46601 2.60823 3.40191C2.51231 3.33782 2.43755 3.24673 2.3934 3.14015C2.34925 3.03356 2.3377 2.91629 2.36021 2.80314C2.38271 2.68999 2.43827 2.58606 2.51984 2.50449C2.60141 2.42292 2.70534 2.36736 2.81849 2.34486C2.93164 2.32235 3.04892 2.3339 3.1555 2.37805C3.26208 2.4222 3.35317 2.49696 3.41727 2.59288C3.48136 2.6888 3.51557 2.80157 3.51557 2.91693C3.51557 3.07163 3.45411 3.21999 3.34473 3.32938C3.23534 3.43876 3.08698 3.50022 2.93228 3.50022Z" fill="#005180"/>
<path d="M2.93246 6.99998C2.68688 7.00124 2.44457 6.94364 2.22583 6.83201C2.00708 6.72038 1.81827 6.55797 1.67519 6.35837C0.563743 4.82521 0 3.67264 0 2.93246C0 2.15472 0.308954 1.40884 0.858896 0.858896C1.40884 0.308954 2.15472 0 2.93246 0C3.71019 0 4.45607 0.308954 5.00601 0.858896C5.55596 1.40884 5.86491 2.15472 5.86491 2.93246C5.86491 3.67264 5.30117 4.82521 4.18972 6.35837C4.04664 6.55797 3.85783 6.72038 3.63908 6.83201C3.42034 6.94364 3.17803 7.00124 2.93246 6.99998ZM2.93246 0.636653C2.32363 0.637348 1.73994 0.879511 1.30943 1.31002C0.878928 1.74052 0.636765 2.32421 0.63607 2.93304C0.63607 3.51924 1.18815 4.60327 2.19023 5.98536C2.2753 6.10253 2.3869 6.1979 2.51591 6.26366C2.64491 6.32942 2.78766 6.36371 2.93246 6.36371C3.07725 6.36371 3.22 6.32942 3.349 6.26366C3.47801 6.1979 3.58961 6.10253 3.67468 5.98536C4.67676 4.60327 5.22884 3.51924 5.22884 2.93304C5.22815 2.32421 4.98598 1.74052 4.55548 1.31002C4.12497 0.879511 3.54128 0.637348 2.93246 0.636653Z" fill="#005180"/>
</g>
<defs>
<clipPath id="clip0_0_1">
<rect width="1440" height="1024" fill="white" transform="translate(-386 -653)"/>
</clipPath>
</defs>
</svg>
