<svg width="28" height="30" viewBox="0 0 28 30" fill="none" xmlns="http://www.w3.org/2000/svg">
<path d="M13.7339 20.0002C14.3152 20.0013 14.8888 19.8669 15.4094 19.6076L17.9064 18.3577C19.1792 17.725 19.982 16.4229 19.9765 15.0002V11.2915C19.9809 9.87011 19.1782 8.56969 17.9064 7.93783L15.4094 6.68786C14.3543 6.16287 13.1146 6.16287 12.0596 6.68786L9.56251 7.93783C8.29031 8.56934 7.48706 9.86987 7.49121 11.2915V15.0002C7.48665 16.422 8.28931 17.7229 9.56129 18.3552L12.0584 19.6052C12.5786 19.8653 13.1523 20.0005 13.7339 20.0002ZM9.98828 15.0002V11.2915C9.99027 11.164 10.0117 11.0375 10.052 10.9165L12.7738 12.279C13.3782 12.5814 14.0896 12.5814 14.694 12.279L17.4158 10.9165C17.456 11.0375 17.4775 11.164 17.4795 11.2915V15.0002C17.4815 15.4745 17.2136 15.9085 16.7891 16.1189L14.292 17.3689C13.9399 17.5433 13.5267 17.5433 13.1746 17.3689L10.6775 16.1189C10.2534 15.9082 9.98606 15.4742 9.98828 15.0002ZM22.4735 27.5001H19.0913L23.4448 23.4726C28.8083 18.103 28.8084 9.39715 23.4451 4.02738C18.0818 -1.34238 9.38618 -1.34244 4.02269 4.02709C-1.34079 9.39662 -1.34091 18.1026 4.0224 23.4723C4.03416 23.4841 8.37646 27.5001 8.37646 27.5001H4.9942C4.30467 27.5001 3.7457 28.0597 3.7457 28.75C3.7457 29.4404 4.30467 30 4.9942 30H22.4736C23.1631 30 23.7221 29.4404 23.7221 28.75C23.7221 28.0597 23.163 27.5001 22.4735 27.5001ZM5.78826 5.79531C10.1668 1.39192 17.2818 1.37599 21.6801 5.75969C26.0783 10.1434 26.0942 17.2667 21.7157 21.6701L16.7403 26.2713C15.0422 27.8738 12.3881 27.8645 10.7012 26.25L5.78826 21.7051C1.40682 17.3089 1.40688 10.1916 5.78826 5.79531Z" fill="#718096"/>
</svg>
