<svg width="9" height="10" viewBox="0 0 9 10" fill="none" xmlns="http://www.w3.org/2000/svg">
<rect width="9" height="10" fill="#F5F5F5"/>
<g clip-path="url(#clip0_0_1)">
<rect width="390" height="844" transform="translate(-56 -54)" fill="white"/>
<g filter="url(#filter0_d_0_1)">
<rect x="-26" y="-28" width="338" height="50" rx="25" fill="white"/>
<rect x="-25.75" y="-27.75" width="337.5" height="49.5" rx="24.75" stroke="#718096" stroke-opacity="0.4" stroke-width="0.5"/>
</g>
<path d="M4.18935 2.50061C3.85974 2.50061 3.53754 2.59835 3.26348 2.78147C2.98942 2.96459 2.77582 3.22487 2.64968 3.52938C2.52355 3.8339 2.49055 4.16898 2.55485 4.49226C2.61915 4.81553 2.77787 5.11248 3.01094 5.34554C3.24401 5.57861 3.54095 5.73733 3.86423 5.80163C4.1875 5.86594 4.52258 5.83294 4.8271 5.7068C5.13162 5.58066 5.39189 5.36706 5.57501 5.093C5.75813 4.81895 5.85587 4.49674 5.85587 4.16713C5.85587 3.72514 5.68029 3.30126 5.36776 2.98872C5.05523 2.67619 4.63134 2.50061 4.18935 2.50061ZM4.18935 5.00039C4.02455 5.00039 3.86344 4.95152 3.72642 4.85996C3.58939 4.7684 3.48259 4.63827 3.41952 4.48601C3.35645 4.33375 3.33995 4.16621 3.3721 4.00457C3.40425 3.84294 3.48361 3.69446 3.60015 3.57793C3.71668 3.46139 3.86515 3.38203 4.02679 3.34988C4.18843 3.31773 4.35597 3.33423 4.50823 3.3973C4.66049 3.46037 4.79062 3.56717 4.88218 3.7042C4.97374 3.84123 5.02261 4.00233 5.02261 4.16713C5.02261 4.38813 4.93482 4.60007 4.77856 4.75634C4.62229 4.9126 4.41035 5.00039 4.18935 5.00039Z" fill="#848484"/>
<path d="M4.18922 9.99997C3.8384 10.0018 3.49224 9.91948 3.17975 9.76001C2.86726 9.60054 2.59752 9.36852 2.39313 9.08338C0.805347 6.89316 0 5.24663 0 4.18922C0 3.07817 0.441363 2.01263 1.22699 1.22699C2.01263 0.441363 3.07817 0 4.18922 0C5.30027 0 6.36582 0.441363 7.15145 1.22699C7.93708 2.01263 8.37844 3.07817 8.37844 4.18922C8.37844 5.24663 7.5731 6.89316 5.98532 9.08338C5.78092 9.36852 5.51118 9.60054 5.19869 9.76001C4.8862 9.91948 4.54005 10.0018 4.18922 9.99997ZM4.18922 0.909505C3.31947 0.910497 2.48563 1.25644 1.87062 1.87145C1.25561 2.48646 0.909664 3.3203 0.908671 4.19006C0.908671 5.02748 1.69735 6.5761 3.1289 8.55051C3.25043 8.71791 3.40986 8.85415 3.59415 8.94809C3.77845 9.04203 3.98236 9.09101 4.18922 9.09101C4.39608 9.09101 4.6 9.04203 4.78429 8.94809C4.96858 8.85415 5.12802 8.71791 5.24955 8.55051C6.68109 6.5761 7.46977 5.02748 7.46977 4.19006C7.46878 3.3203 7.12283 2.48646 6.50782 1.87145C5.89282 1.25644 5.05897 0.910497 4.18922 0.909505Z" fill="#848484"/>
</g>
<defs>
<filter id="filter0_d_0_1" x="-30" y="-28" width="346" height="58" filterUnits="userSpaceOnUse" color-interpolation-filters="sRGB">
<feFlood flood-opacity="0" result="BackgroundImageFix"/>
<feColorMatrix in="SourceAlpha" type="matrix" values="0 0 0 0 0 0 0 0 0 0 0 0 0 0 0 0 0 0 127 0" result="hardAlpha"/>
<feOffset dy="4"/>
<feGaussianBlur stdDeviation="2"/>
<feComposite in2="hardAlpha" operator="out"/>
<feColorMatrix type="matrix" values="0 0 0 0 0 0 0 0 0 0 0 0 0 0 0 0 0 0 0.25 0"/>
<feBlend mode="normal" in2="BackgroundImageFix" result="effect1_dropShadow_0_1"/>
<feBlend mode="normal" in="SourceGraphic" in2="effect1_dropShadow_0_1" result="shape"/>
</filter>
<clipPath id="clip0_0_1">
<rect width="390" height="844" fill="white" transform="translate(-56 -54)"/>
</clipPath>
</defs>
</svg>
