<svg width="30" height="30" viewBox="0 0 30 30" fill="none" xmlns="http://www.w3.org/2000/svg">
<path d="M14.9831 14.9757C15.9709 14.9757 16.9366 14.6827 17.7579 14.1339C18.5792 13.5852 19.2193 12.8051 19.5974 11.8925C19.9754 10.9799 20.0743 9.97573 19.8816 9.00692C19.6889 8.0381 19.2132 7.14819 18.5147 6.44971C17.8162 5.75123 16.9263 5.27556 15.9575 5.08286C14.9887 4.89015 13.9845 4.98905 13.0719 5.36706C12.1593 5.74508 11.3793 6.38522 10.8305 7.20654C10.2817 8.02786 9.98876 8.99348 9.98876 9.98127C9.98876 11.3059 10.515 12.5762 11.4516 13.5128C12.3882 14.4495 13.6586 14.9757 14.9831 14.9757ZM14.9831 7.48408C15.477 7.48408 15.9598 7.63054 16.3705 7.90493C16.7812 8.17933 17.1012 8.56933 17.2902 9.02564C17.4793 9.48194 17.5287 9.98404 17.4324 10.4684C17.336 10.9529 17.0982 11.3978 16.7489 11.7471C16.3997 12.0963 15.9547 12.3341 15.4703 12.4305C14.9859 12.5268 14.4838 12.4774 14.0275 12.2884C13.5712 12.0994 13.1812 11.7793 12.9068 11.3686C12.6324 10.958 12.486 10.4752 12.486 9.98127C12.486 9.31897 12.7491 8.6838 13.2174 8.21549C13.6857 7.74718 14.3208 7.48408 14.9831 7.48408ZM19.9775 27.4991L29.9663 29.9313V16.8273C29.966 16.0231 29.7069 15.2403 29.2273 14.5947C28.7476 13.9491 28.073 13.475 27.303 13.2426L24.681 12.3686C24.8727 11.5898 24.9704 10.7908 24.9719 9.98876C24.9719 7.33958 23.9195 4.7989 22.0463 2.92564C20.173 1.05238 17.6323 0 14.9831 0C12.334 0 9.79328 1.05238 7.92002 2.92564C6.04677 4.7989 4.99438 7.33958 4.99438 9.98876C4.99808 10.4956 5.03981 11.0015 5.11924 11.5021C4.55222 11.276 3.93843 11.1923 3.33159 11.2584C2.72475 11.3244 2.14334 11.5382 1.63822 11.8809C1.13309 12.2237 0.719657 12.685 0.434069 13.2245C0.148482 13.764 -0.000553391 14.3652 1.54406e-06 14.9757V27.152L9.96754 30L19.9775 27.4991ZM9.68536 4.69222C11.0928 3.30472 12.9916 2.52962 14.9679 2.53575C16.9443 2.54188 18.8382 3.32875 20.2371 4.72495C21.6359 6.12115 22.4263 8.01355 22.4362 9.98992C22.446 11.9663 21.6745 13.8665 20.2897 15.2766L14.9831 20.4695L9.68536 15.2866C8.28052 13.8816 7.4913 11.9762 7.4913 9.98939C7.4913 8.00259 8.28052 6.09715 9.68536 4.69222ZM2.49719 14.9757C2.49562 14.7697 2.54578 14.5667 2.64307 14.3852C2.74037 14.2037 2.88169 14.0495 3.05407 13.9368C3.23438 13.8185 3.4421 13.7485 3.65727 13.7336C3.87243 13.7188 4.08781 13.7595 4.28268 13.8519L6.07317 14.4987C6.5522 15.4473 7.1789 16.3138 7.92983 17.0658L14.9831 23.9655L22.0464 17.0571C22.741 16.3635 23.3299 15.5718 23.7945 14.7072L26.5626 15.6324C26.8233 15.707 27.0527 15.8644 27.216 16.0809C27.3793 16.2974 27.4677 16.5611 27.4679 16.8323V26.7574L19.9775 24.927L10.0137 27.4241L2.49719 25.2716V14.9757Z" fill="white"/>
</svg>
