<svg width="25" height="25" viewBox="0 0 25 25" fill="none" xmlns="http://www.w3.org/2000/svg">
<path d="M24.7078 23.2361L18.4952 17.0235C20.1882 14.9529 21.0206 12.3108 20.8202 9.64371C20.6198 6.9766 19.402 4.48854 17.4186 2.69417C15.4352 0.899801 12.838 -0.0635928 10.1642 0.00326044C7.49041 0.0701136 4.9446 1.1621 3.05335 3.05335C1.1621 4.94459 0.0701137 7.49041 0.00326044 10.1642C-0.0635928 12.838 0.899801 15.4352 2.69417 17.4186C4.48854 19.402 6.9766 20.6198 9.64371 20.8202C12.3108 21.0206 14.9529 20.1882 17.0235 18.4952L23.2361 24.7078C23.4324 24.8974 23.6953 25.0023 23.9682 25C24.2411 24.9976 24.5022 24.8881 24.6952 24.6952C24.8881 24.5022 24.9976 24.2411 25 23.9682C25.0023 23.6953 24.8974 23.4324 24.7078 23.2361ZM10.4414 18.7679C8.79461 18.7679 7.18476 18.2796 5.81548 17.3647C4.44619 16.4497 3.37897 15.1493 2.74875 13.6278C2.11854 12.1064 1.95365 10.4322 2.27493 8.81701C2.59621 7.20183 3.38923 5.71819 4.55371 4.55371C5.71819 3.38923 7.20183 2.59621 8.81701 2.27493C10.4322 1.95365 12.1064 2.11854 13.6278 2.74875C15.1493 3.37897 16.4497 4.44619 17.3647 5.81548C18.2796 7.18476 18.7679 8.7946 18.7679 10.4414C18.7654 12.649 17.8874 14.7654 16.3264 16.3264C14.7654 17.8874 12.649 18.7654 10.4414 18.7679Z" fill="#1992E3"/>
</svg>
