<svg width="30" height="30" viewBox="0 0 30 30" fill="none" xmlns="http://www.w3.org/2000/svg">
<path d="M24.3714 12.1857C24.3714 14.8748 23.4985 17.3588 22.028 19.3741L29.4449 26.7969C30.1772 27.5292 30.1772 28.7184 29.4449 29.4508C28.7126 30.1831 27.5233 30.1831 26.791 29.4508L19.3741 22.028C17.3588 23.5044 14.8748 24.3714 12.1857 24.3714C5.45428 24.3714 0 18.9172 0 12.1857C0 5.45428 5.45428 0 12.1857 0C18.9172 0 24.3714 5.45428 24.3714 12.1857ZM12.1857 20.622C16.8432 20.622 20.622 16.8432 20.622 12.1857C20.622 7.52819 16.8432 3.74945 12.1857 3.74945C7.52819 3.74945 3.74945 7.52819 3.74945 12.1857C3.74945 16.8432 7.52819 20.622 12.1857 20.622Z" fill="#718096"/>
</svg>
