<svg width="26" height="26" viewBox="0 0 26 26" fill="none" xmlns="http://www.w3.org/2000/svg">
<path d="M25.4138 23.9L19.0237 17.5099C20.765 15.3802 21.6212 12.6626 21.4151 9.91925C21.209 7.17593 19.9563 4.61678 17.9163 2.77115C15.8762 0.92551 13.2048 -0.0654097 10.4546 0.00335359C7.70442 0.0721169 5.08587 1.1953 3.14059 3.14059C1.1953 5.08587 0.0721169 7.70442 0.00335359 10.4546C-0.0654097 13.2048 0.92551 15.8762 2.77115 17.9163C4.61678 19.9563 7.17593 21.209 9.91925 21.4151C12.6626 21.6212 15.3802 20.765 17.5099 19.0237L23.9 25.4138C24.1019 25.6088 24.3723 25.7167 24.653 25.7142C24.9337 25.7118 25.2022 25.5992 25.4007 25.4007C25.5992 25.2022 25.7118 24.9337 25.7142 24.653C25.7167 24.3723 25.6088 24.1019 25.4138 23.9ZM10.7398 19.3041C9.04588 19.3041 7.39004 18.8019 5.98163 17.8608C4.57323 16.9197 3.47551 15.5821 2.82729 14.0172C2.17907 12.4523 2.00947 10.7303 2.33993 9.06893C2.67039 7.4076 3.48606 5.88157 4.68382 4.68382C5.88157 3.48606 7.4076 2.67039 9.06893 2.33993C10.7303 2.00947 12.4523 2.17907 14.0172 2.82729C15.5821 3.47551 16.9197 4.57323 17.8608 5.98163C18.8019 7.39004 19.3041 9.04588 19.3041 10.7398C19.3016 13.0104 18.3985 15.1873 16.7929 16.7929C15.1873 18.3985 13.0104 19.3016 10.7398 19.3041Z" fill="white"/>
</svg>
