<svg width="16" height="15" viewBox="0 0 16 15" fill="none" xmlns="http://www.w3.org/2000/svg">
<path d="M0.872953 7.88376L3.23013 9.56253L2.33493 12.266C2.19027 12.6853 2.18843 13.1389 2.32971 13.5593C2.47098 13.9797 2.7478 14.3444 3.11889 14.5988C3.48363 14.8615 3.92563 15.0022 4.37903 15C4.83243 14.9978 5.27296 14.8528 5.63498 14.5866L7.93985 12.9323L10.2454 14.5846C10.6095 14.8458 11.0491 14.9876 11.501 14.9898C11.953 14.9919 12.394 14.8542 12.7607 14.5966C13.1273 14.3389 13.4008 13.9745 13.5416 13.5557C13.6825 13.1369 13.6836 12.6854 13.5448 12.266L12.6496 9.56253L15.0068 7.88376C15.3704 7.62452 15.6406 7.25987 15.779 6.84188C15.9174 6.4239 15.9168 5.97396 15.7773 5.55633C15.6377 5.13871 15.3664 4.77476 15.0021 4.51648C14.6378 4.25819 14.1991 4.11878 13.7487 4.11815H10.8532L9.97457 1.44762C9.8364 1.02726 9.56489 0.660548 9.1992 0.400372C8.83351 0.140196 8.39253 0 7.93985 0C7.48718 0 7.0462 0.140196 6.6805 0.400372C6.31481 0.660548 6.0433 1.02726 5.90513 1.44762L5.02649 4.11815H2.13365C1.68323 4.11878 1.24453 4.25819 0.880223 4.51648C0.515912 4.77476 0.24462 5.13871 0.105097 5.55633C-0.0344268 5.97396 -0.0350443 6.4239 0.103332 6.84188C0.241709 7.25987 0.512001 7.62452 0.875601 7.88376H0.872953Z" fill="#FFD300"/>
</svg>
