<svg width="30" height="30" viewBox="0 0 30 30" fill="none" xmlns="http://www.w3.org/2000/svg">
<path d="M18.8637 20C27.0762 19.955 30 15.605 30 11.875C29.9992 10.8751 29.6559 9.90559 29.0272 9.12797C28.3986 8.35036 27.5225 7.81155 26.545 7.60128C26.715 7.11753 26.8625 6.67378 26.9612 6.33753C27.1794 5.60621 27.2223 4.83378 27.0863 4.0828C26.9504 3.33183 26.6395 2.62344 26.1787 2.01504C25.7142 1.38739 25.1085 0.877924 24.4106 0.527862C23.7126 0.1778 22.942 -0.00301903 22.1612 3.81301e-05H7.83874C7.05793 -0.00301903 6.28736 0.1778 5.58941 0.527862C4.89146 0.877924 4.28573 1.38739 3.82124 2.01504C3.36051 2.62344 3.04957 3.33183 2.91362 4.0828C2.77767 4.83378 2.82054 5.60621 3.03875 6.33753C3.1375 6.67378 3.28875 7.11753 3.455 7.60128C2.47742 7.81155 1.60136 8.35036 0.972721 9.12797C0.344078 9.90559 0.000782849 10.8751 0 11.875C0 15.605 2.92375 19.955 11.1362 20C11.2092 20.3795 11.2473 20.7648 11.25 21.1513V25C11.2715 25.3339 11.2215 25.6685 11.1035 25.9815C10.9854 26.2946 10.802 26.5789 10.5654 26.8155C10.3289 27.052 10.0446 27.2355 9.73153 27.3535C9.41848 27.4715 9.08386 27.5215 8.74999 27.5H7.49999C7.16847 27.5 6.85053 27.6317 6.61611 27.8661C6.38169 28.1005 6.24999 28.4185 6.24999 28.75C6.24999 29.0815 6.38169 29.3995 6.61611 29.6339C6.85053 29.8683 7.16847 30 7.49999 30H22.5C22.8315 30 23.1494 29.8683 23.3839 29.6339C23.6183 29.3995 23.75 29.0815 23.75 28.75C23.75 28.4185 23.6183 28.1005 23.3839 27.8661C23.1494 27.6317 22.8315 27.5 22.5 27.5H21.26C20.9254 27.5226 20.5898 27.4734 20.2758 27.3559C19.9617 27.2384 19.6763 27.0552 19.4387 26.8185C19.2011 26.5819 19.0168 26.2972 18.898 25.9836C18.7792 25.67 18.7288 25.3347 18.75 25V21.15C18.7527 20.764 18.7908 20.3791 18.8637 20ZM25.625 10C26.1222 10 26.5992 10.1976 26.9508 10.5492C27.3024 10.9008 27.5 11.3777 27.5 11.875C27.5 14.4175 25.4887 17.125 19.955 17.4625C20.2317 17.0848 20.5514 16.7404 20.9075 16.4363C22.9 14.6413 24.488 12.4431 25.5662 9.98753C25.5862 9.98878 25.6037 10 25.625 10ZM2.5 11.875C2.5 11.3777 2.69754 10.9008 3.04917 10.5492C3.4008 10.1976 3.87771 10 4.37499 10C4.39624 10 4.41374 9.98878 4.43374 9.98753C5.51194 12.4431 7.09997 14.6413 9.09249 16.4363C9.44858 16.7404 9.76821 17.0848 10.045 17.4625C4.51124 17.125 2.5 14.4175 2.5 11.875ZM13.1412 27.5C13.5545 26.7324 13.7641 25.8717 13.75 25V21.1513C13.7543 19.8936 13.4847 18.65 12.96 17.507C12.4352 16.364 11.6679 15.349 10.7112 14.5325C8.1694 12.1032 6.34454 9.02171 5.43624 5.62503C5.32951 5.2665 5.30897 4.88783 5.37631 4.51986C5.44365 4.15189 5.59696 3.80503 5.82374 3.50753C6.05692 3.19319 6.36085 2.93817 6.71092 2.76314C7.06099 2.58811 7.44736 2.49797 7.83874 2.50004H22.1612C22.553 2.49855 22.9397 2.58945 23.2898 2.76537C23.6399 2.94129 23.9436 3.19727 24.1762 3.51253C24.403 3.81003 24.5563 4.15689 24.6236 4.52486C24.691 4.89283 24.6705 5.2715 24.5637 5.63003C23.6546 9.02492 21.8298 12.1046 19.2887 14.5325C18.3321 15.3488 17.5648 16.3636 17.04 17.5064C16.5152 18.6491 16.2457 19.8925 16.25 21.15V25C16.2359 25.8717 16.4455 26.7324 16.8587 27.5H13.1412Z" fill="#718096"/>
</svg>
