<svg width="43" height="30" viewBox="0 0 43 30" fill="none" xmlns="http://www.w3.org/2000/svg">
<path d="M41.5962 9.15267C41.3696 8.9897 41.1078 8.88242 40.8321 8.83952C40.5563 8.79663 40.2743 8.81933 40.009 8.90578L29.7277 12.2759C29.4529 12.3555 29.1628 12.3666 28.8827 12.3082C28.6026 12.2498 28.3411 12.1236 28.1211 11.9408C27.4984 10.985 26.6476 10.1991 25.6456 9.65389C24.6435 9.10869 23.5216 8.8213 22.3808 8.8176H19.3987V3.52704H22.9258C23.3935 3.52704 23.842 3.34124 24.1728 3.01052C24.5035 2.67979 24.6893 2.23124 24.6893 1.76352C24.6893 1.29581 24.5035 0.847247 24.1728 0.516523C23.842 0.185799 23.3935 0 22.9258 0H12.3446C11.8769 0 11.4284 0.185799 11.0976 0.516523C10.7669 0.847247 10.5811 1.29581 10.5811 1.76352C10.5811 2.23124 10.7669 2.67979 11.0976 3.01052C11.4284 3.34124 11.8769 3.52704 12.3446 3.52704H15.8717V8.8176H10.5335L7.1352 7.38739C6.3352 7.08978 5.47506 6.99015 4.6282 7.09701C3.78134 7.20388 2.97292 7.51406 2.27192 8.00108C1.57093 8.48811 0.998178 9.13751 0.602562 9.89387C0.206947 10.6502 0.000210648 11.4911 0 12.3446L0 14.9282C0.000279372 16.3881 0.453507 17.8119 1.29718 19.0034C2.14085 20.1948 3.3334 21.0951 4.71036 21.5802L7.05408 22.4108V22.9258C7.05408 24.7966 7.79728 26.5909 9.12017 27.9138C10.4431 29.2367 12.2373 29.9798 14.1082 29.9798H23.1885C24.4678 29.981 25.732 29.7033 26.893 29.166C28.054 28.6288 29.0839 27.8449 29.9111 26.869L41.903 12.7432C42.1748 12.4244 42.3242 12.0193 42.3245 11.6004V10.5811C42.3246 10.3024 42.2587 10.0276 42.1321 9.77934C42.0055 9.53103 41.8218 9.31628 41.5962 9.15267ZM5.88134 18.2577C5.19302 18.0151 4.59694 17.5648 4.17527 16.9691C3.7536 16.3734 3.52712 15.6616 3.52704 14.9317V12.3446C3.52491 12.0598 3.59279 11.7788 3.7247 11.5263C3.85662 11.2739 4.04854 11.0577 4.28359 10.8968C4.50511 10.7374 4.76147 10.6331 5.03137 10.5926C5.30127 10.5521 5.57694 10.5766 5.83549 10.664L7.05408 11.1807V18.6704L5.88134 18.2577ZM27.2199 24.587C26.7234 25.1717 26.1057 25.6413 25.4095 25.9635C24.7134 26.2857 23.9556 26.4526 23.1885 26.4528H14.1082C13.1727 26.4528 12.2756 26.0812 11.6142 25.4198C10.9527 24.7583 10.5811 23.8612 10.5811 22.9258V12.3446H22.3808C22.9561 12.3462 23.5211 12.497 24.0206 12.7823C24.5202 13.0676 24.9371 13.4777 25.2307 13.9724C25.3057 14.1011 25.397 14.2197 25.5023 14.3251C26.1791 14.9978 27.0245 15.476 27.9498 15.7094C28.8751 15.9427 29.8462 15.9226 30.7611 15.6512L36.3726 13.8137L27.2199 24.587ZM41.2893 23.9786C41.7827 24.4718 42.1187 25.1003 42.2549 25.7845C42.3911 26.4687 42.3213 27.1779 42.0543 27.8225C41.7874 28.467 41.3354 29.0179 40.7553 29.4055C40.1753 29.7931 39.4933 30 38.7957 30C38.0981 30 37.4161 29.7931 36.8361 29.4055C36.256 29.0179 35.8039 28.467 35.537 27.8225C35.2701 27.1779 35.2003 26.4687 35.3365 25.7845C35.4727 25.1003 35.8087 24.4718 36.3021 23.9786L37.7129 22.3914C37.8484 22.2385 38.0148 22.116 38.2012 22.0321C38.3875 21.9483 38.5896 21.9049 38.7939 21.9049C38.9983 21.9049 39.2003 21.9483 39.3867 22.0321C39.573 22.116 39.7394 22.2385 39.875 22.3914L41.2893 23.9786Z" fill="#718096"/>
</svg>
