<svg width="40" height="40" viewBox="0 0 40 40" fill="none" xmlns="http://www.w3.org/2000/svg">
<path d="M20 8.75C16.2031 8.75 13.125 11.8281 13.125 15.625C13.125 19.4219 16.2031 22.5 20 22.5C23.7969 22.5 26.875 19.4219 26.875 15.625C26.875 11.8281 23.7969 8.75 20 8.75ZM20 18.75C18.2766 18.75 16.875 17.3477 16.875 15.625C16.875 13.8984 18.2734 12.5 20 12.5C21.7266 12.5 23.125 13.9016 23.125 15.625C23.125 17.3516 21.7266 18.75 20 18.75ZM20 0C8.95312 0 0 8.95312 0 20C0 31.0469 8.95312 40 20 40C31.0469 40 40 31.0469 40 20C40 8.95312 31.0469 0 20 0ZM20 36.25C16.3492 36.25 12.9875 35.025 10.2734 32.9852C11.625 30.3906 14.25 28.75 17.2031 28.75H22.8039C25.7531 28.75 28.375 30.3914 29.732 32.9852C27.0156 35.0234 23.6484 36.25 20 36.25ZM32.5156 30.3516C30.4062 27.0547 26.8125 25 22.7969 25H17.2031C13.1906 25 9.59766 27.0508 7.48438 30.35C5.15313 27.5391 3.75 23.9297 3.75 20C3.75 11.0391 11.0398 3.75 20 3.75C28.9602 3.75 36.25 11.0398 36.25 20C36.25 23.9297 34.8438 27.5391 32.5156 30.3516Z" fill="#1992E3"/>
</svg>
