<svg width="19" height="15" viewBox="0 0 19 15" fill="none" xmlns="http://www.w3.org/2000/svg">
<path d="M1.40625 0C0.629883 0 0 0.629883 0 1.40625V10.7812C0 11.5576 0.629883 12.1875 1.40625 12.1875H1.875C1.875 13.7402 3.13477 15 4.6875 15C6.24023 15 7.5 13.7402 7.5 12.1875H11.25C11.25 13.7402 12.5098 15 14.0625 15C15.6152 15 16.875 13.7402 16.875 12.1875H17.8125C18.3311 12.1875 18.75 11.7686 18.75 11.25C18.75 10.7314 18.3311 10.3125 17.8125 10.3125V8.4375V7.5V6.95215C17.8125 6.4541 17.6162 5.97656 17.2646 5.625L15 3.36035C14.6484 3.00879 14.1709 2.8125 13.6729 2.8125H12.1875V1.40625C12.1875 0.629883 11.5576 0 10.7812 0H1.40625ZM12.1875 4.6875H13.6729L15.9375 6.95215V7.5H12.1875V4.6875ZM6.09375 12.1875C6.09375 12.9639 5.46387 13.5938 4.6875 13.5938C3.91113 13.5938 3.28125 12.9639 3.28125 12.1875C3.28125 11.4111 3.91113 10.7812 4.6875 10.7812C5.46387 10.7812 6.09375 11.4111 6.09375 12.1875ZM14.0625 13.5938C13.2861 13.5938 12.6562 12.9639 12.6562 12.1875C12.6562 11.4111 13.2861 10.7812 14.0625 10.7812C14.8389 10.7812 15.4688 11.4111 15.4688 12.1875C15.4688 12.9639 14.8389 13.5938 14.0625 13.5938Z" fill="#718096"/>
</svg>
