<svg width="38" height="30" viewBox="0 0 38 30" fill="none" xmlns="http://www.w3.org/2000/svg">
<path d="M11.7186 0C9.92563 0 8.43737 3.20503 8.43737 5.04485V11.2791L0.457024 16.072C0.169919 16.2419 0 16.5466 0 16.8748V20.6247C0 20.9235 0.140623 21.1989 0.374994 21.3747C0.609366 21.5505 0.919908 21.6032 1.20115 21.5212L8.43151 19.3532V24.111L5.50187 26.4547C5.27922 26.6305 5.15031 26.9 5.15031 27.1871V29.0621C5.15031 29.3609 5.2968 29.648 5.53703 29.8238C5.77726 29.9996 6.09366 30.0464 6.38076 29.9527L11.7186 28.1773L17.0154 29.941C16.9216 29.6656 16.8747 29.3668 16.8747 29.0621V27.1519C15.8084 26.5367 15.0759 25.4117 15.0056 24.1168L14.9998 24.111V23.9059V19.072V10.7811V10.7166V5.04485C14.9998 3.20503 13.5643 0 11.7186 0ZM16.8747 10.3123V23.4372C16.8747 24.6617 17.6599 25.7047 18.7497 26.0914V28.5933C18.7497 29.3726 19.3767 29.9996 20.156 29.9996H21.0934C21.8727 29.9996 22.4997 29.3726 22.4997 28.5933V26.2496H31.8745V28.5933C31.8745 29.3726 32.5015 29.9996 33.2808 29.9996H34.2182C34.9975 29.9996 35.6245 29.3726 35.6245 28.5933V26.0914C36.7143 25.7047 37.4994 24.6617 37.4994 23.4372V10.3123C37.4994 8.75964 36.2397 7.49989 34.687 7.49989H19.6872C18.1345 7.49989 16.8747 8.75964 16.8747 10.3123ZM21.5505 14.9236C21.7438 14.4138 22.2067 14.0623 22.7516 14.0623H31.6226C32.1616 14.0623 32.6304 14.4138 32.8237 14.9236L33.7495 17.8122H20.6247L21.5505 14.9236ZM33.2808 23.4372C32.5015 23.4372 31.8745 22.8102 31.8745 22.0309C31.8745 21.2516 32.5015 20.6247 33.2808 20.6247C34.06 20.6247 34.687 21.2516 34.687 22.0309C34.687 22.8102 34.06 23.4372 33.2808 23.4372ZM22.4997 22.0309C22.4997 22.8102 21.8727 23.4372 21.0934 23.4372C20.3142 23.4372 19.6872 22.8102 19.6872 22.0309C19.6872 21.2516 20.3142 20.6247 21.0934 20.6247C21.8727 20.6247 22.4997 21.2516 22.4997 22.0309Z" fill="#718096"/>
</svg>
